<svg width="146" height="42" viewBox="0 0 146 42" fill="none" xmlns="http://www.w3.org/2000/svg">
<path d="M145.193 37.1563C145.193 39.3946 143.342 41.2076 141.053 41.2076H5.56925C3.28112 41.2076 1.42383 39.3946 1.42383 37.1563V4.84901C1.42383 2.61184 3.28112 0.79248 5.56925 0.79248H141.052C143.342 0.79248 145.192 2.61184 145.192 4.84901L145.193 37.1563Z" fill="black"/>
<path d="M140.615 0.841316C143.108 0.841316 145.137 2.81925 145.137 5.25V36.75C145.137 39.1808 143.108 41.1587 140.615 41.1587H5.99985C3.50677 41.1587 1.47812 39.1808 1.47812 36.75V5.25C1.47812 2.81925 3.50677 0.841316 5.99985 0.841316H140.615ZM140.615 3.8147e-06H5.99985C3.03966 3.8147e-06 0.615234 2.36382 0.615234 5.25V36.75C0.615234 39.6362 3.03966 42 5.99985 42H140.615C143.575 42 146 39.6362 146 36.75V5.25C146 2.36382 143.575 3.8147e-06 140.615 3.8147e-06Z" fill="#A6A6A6"/>
<path d="M33.0603 20.7732C33.029 17.389 35.9023 15.7426 36.0336 15.666C34.4064 13.3528 31.8843 13.0368 30.998 13.0116C28.8796 12.7942 26.8249 14.2474 25.7458 14.2474C24.6452 14.2474 22.9835 13.0326 21.1926 13.0683C18.888 13.1029 16.732 14.4039 15.5495 16.4241C13.1092 20.5432 14.9292 26.5965 17.2672 29.926C18.4367 31.5567 19.8033 33.3774 21.5921 33.3133C23.3421 33.243 23.9958 32.2255 26.1077 32.2255C28.2001 32.2255 28.814 33.3133 30.6383 33.2724C32.5164 33.243 33.6989 31.6344 34.8275 29.989C36.179 28.12 36.7218 26.2794 36.7433 26.1849C36.6992 26.1702 33.0958 24.8293 33.0603 20.7732Z" fill="white"/>
<path d="M29.6141 10.8213C30.5553 9.67363 31.1993 8.11228 31.0206 6.52783C29.6583 6.58663 27.9546 7.44658 26.9735 8.56903C26.1055 9.55813 25.3301 11.1793 25.5304 12.7039C27.0607 12.8152 28.632 11.9511 29.6141 10.8213Z" fill="white"/>
<path d="M53.4378 10.5096C53.4378 11.7455 53.0576 12.6758 52.2984 13.3005C51.5952 13.877 50.5958 14.1657 49.3013 14.1657C48.6595 14.1657 48.1102 14.1384 47.6504 14.0838V7.33128C48.2502 7.23678 48.8964 7.18848 49.5942 7.18848C50.8273 7.18848 51.7567 7.44993 52.3835 7.97283C53.0856 8.56398 53.4378 9.40923 53.4378 10.5096ZM52.2478 10.5401C52.2478 9.73893 52.0302 9.12468 51.5952 8.69628C51.1601 8.26893 50.5247 8.05473 49.6879 8.05473C49.3325 8.05473 49.0299 8.07783 48.779 8.12613V13.2596C48.9179 13.2806 49.1721 13.29 49.5415 13.29C50.4052 13.29 51.0718 13.0559 51.5413 12.5876C52.0109 12.1193 52.2478 11.4368 52.2478 10.5401Z" fill="white"/>
<path d="M59.7476 11.5889C59.7476 12.3501 59.5246 12.9738 59.0788 13.4631C58.6114 13.9661 57.9922 14.217 57.2189 14.217C56.4737 14.217 55.8803 13.9766 55.4377 13.4936C54.9962 13.0116 54.7754 12.4037 54.7754 11.6708C54.7754 10.9043 55.0026 10.2753 55.4592 9.7871C55.9159 9.29885 56.5297 9.0542 57.3029 9.0542C58.0482 9.0542 58.6469 9.29465 59.1003 9.7766C59.5311 10.2449 59.7476 10.8497 59.7476 11.5889ZM58.5769 11.6246C58.5769 11.1678 58.4757 10.7762 58.2743 10.4496C58.0374 10.0548 57.7003 9.85745 57.262 9.85745C56.8086 9.85745 56.464 10.0548 56.2271 10.4496C56.0246 10.7762 55.9245 11.1741 55.9245 11.6445C55.9245 12.1013 56.0257 12.4929 56.2271 12.8195C56.4715 13.2143 56.8119 13.4117 57.2512 13.4117C57.682 13.4117 58.0202 13.2111 58.2635 12.809C58.4725 12.4761 58.5769 12.0813 58.5769 11.6246Z" fill="white"/>
<path d="M68.2069 9.15479L66.6185 14.1045H65.5846L64.9266 11.9551C64.7597 11.4186 64.624 10.8852 64.5185 10.356H64.498C64.4 10.8999 64.2643 11.4322 64.0899 11.9551L63.3909 14.1045H62.3453L60.8516 9.15479H62.0114L62.5854 11.5078C62.7243 12.0643 62.8385 12.5946 62.93 13.0965H62.9505C63.0345 12.6828 63.1734 12.1557 63.3694 11.5183L64.0899 9.15584H65.0096L65.6999 11.4679C65.8668 12.0318 66.0025 12.5746 66.1069 13.0975H66.1382C66.2146 12.5883 66.3299 12.0454 66.4828 11.4679L67.0988 9.15584H68.2069V9.15479Z" fill="white"/>
<path d="M74.0592 14.1044H72.9306V11.2694C72.9306 10.3958 72.5903 9.95903 71.9075 9.95903C71.5726 9.95903 71.3023 10.0787 71.0923 10.3192C70.8844 10.5596 70.7789 10.8431 70.7789 11.1676V14.1034H69.6503V10.5691C69.6503 10.1344 69.6363 9.66293 69.6094 9.15263H70.6012L70.654 9.92648H70.6852C70.8166 9.68603 71.0126 9.48758 71.27 9.32903C71.5758 9.14423 71.9183 9.05078 72.2931 9.05078C72.7669 9.05078 73.1611 9.19988 73.4744 9.49913C73.8643 9.86558 74.0592 10.4126 74.0592 11.1392V14.1044Z" fill="white"/>
<path d="M77.1705 14.1046H76.043V6.88379H77.1705V14.1046Z" fill="white"/>
<path d="M83.8159 11.5889C83.8159 12.3501 83.593 12.9738 83.1471 13.4631C82.6797 13.9661 82.0594 14.217 81.2873 14.217C80.541 14.217 79.9476 13.9766 79.5061 13.4936C79.0645 13.0116 78.8438 12.4037 78.8438 11.6708C78.8438 10.9043 79.071 10.2753 79.5276 9.7871C79.9842 9.29885 80.5981 9.0542 81.3702 9.0542C82.1165 9.0542 82.7142 9.29465 83.1687 9.7766C83.5994 10.2449 83.8159 10.8497 83.8159 11.5889ZM82.6442 11.6246C82.6442 11.1678 82.543 10.7762 82.3416 10.4496C82.1057 10.0548 81.7676 9.85745 81.3304 9.85745C80.8759 9.85745 80.5313 10.0548 80.2954 10.4496C80.093 10.7762 79.9928 11.1741 79.9928 11.6445C79.9928 12.1013 80.0941 12.4929 80.2954 12.8195C80.5399 13.2143 80.8802 13.4117 81.3196 13.4117C81.7504 13.4117 82.0874 13.2111 82.3308 12.809C82.5408 12.4761 82.6442 12.0813 82.6442 11.6246Z" fill="white"/>
<path d="M89.2771 14.1047H88.2637L88.1797 13.5345H88.1484C87.8017 13.9892 87.3074 14.217 86.6655 14.217C86.1863 14.217 85.7986 14.0669 85.5068 13.7687C85.2418 13.4978 85.1094 13.1607 85.1094 12.7607C85.1094 12.1559 85.3678 11.6949 85.888 11.3757C86.4071 11.0565 87.1372 10.9001 88.0774 10.9074V10.815C88.0774 10.163 87.7263 9.8375 87.0231 9.8375C86.5223 9.8375 86.0808 9.96035 85.6995 10.2039L85.4701 9.48155C85.9418 9.197 86.5245 9.0542 87.2115 9.0542C88.5383 9.0542 89.2038 9.7367 89.2038 11.1017V12.9245C89.2038 13.419 89.2286 13.8128 89.2771 14.1047ZM88.1054 12.4037V11.6403C86.8604 11.6193 86.238 11.9522 86.238 12.6378C86.238 12.8961 86.3091 13.0893 86.4545 13.2185C86.5998 13.3476 86.7851 13.4117 87.0058 13.4117C87.2535 13.4117 87.4851 13.335 87.6961 13.1828C87.9083 13.0295 88.0386 12.8352 88.0871 12.5969C88.0989 12.5433 88.1054 12.4782 88.1054 12.4037Z" fill="white"/>
<path d="M95.6899 14.1046H94.6884L94.6356 13.3098H94.6044C94.2845 13.9146 93.7396 14.217 92.9739 14.217C92.3622 14.217 91.8528 13.9828 91.449 13.5145C91.0451 13.0462 90.8438 12.4383 90.8438 11.6917C90.8438 10.8906 91.0624 10.2417 91.5017 9.74609C91.9271 9.28409 92.4484 9.05309 93.0687 9.05309C93.7504 9.05309 94.2274 9.27674 94.4988 9.72509H94.5204V6.88379H95.65V12.7711C95.65 13.2531 95.663 13.6972 95.6899 14.1046ZM94.5204 12.0172V11.1919C94.5204 11.0491 94.5096 10.9336 94.4891 10.8454C94.4256 10.5808 94.2888 10.3582 94.081 10.1787C93.871 9.99914 93.6179 9.90884 93.326 9.90884C92.905 9.90884 92.5754 10.0716 92.3331 10.3981C92.093 10.7247 91.9713 11.1415 91.9713 11.6508C91.9713 12.1401 92.0865 12.537 92.3181 12.8425C92.5625 13.168 92.8921 13.3308 93.3045 13.3308C93.675 13.3308 93.9711 13.1953 94.1962 12.9234C94.4137 12.6724 94.5204 12.37 94.5204 12.0172Z" fill="white"/>
<path d="M105.343 11.5889C105.343 12.3501 105.12 12.9738 104.674 13.4631C104.207 13.9661 103.589 14.217 102.815 14.217C102.07 14.217 101.477 13.9766 101.033 13.4936C100.592 13.0116 100.371 12.4037 100.371 11.6708C100.371 10.9043 100.598 10.2753 101.055 9.7871C101.512 9.29885 102.125 9.0542 102.9 9.0542C103.644 9.0542 104.244 9.29465 104.696 9.7766C105.127 10.2449 105.343 10.8497 105.343 11.5889ZM104.174 11.6246C104.174 11.1678 104.072 10.7762 103.871 10.4496C103.633 10.0548 103.297 9.85745 102.858 9.85745C102.405 9.85745 102.061 10.0548 101.823 10.4496C101.62 10.7762 101.52 11.1741 101.52 11.6445C101.52 12.1013 101.621 12.4929 101.823 12.8195C102.067 13.2143 102.408 13.4117 102.847 13.4117C103.278 13.4117 103.617 13.2111 103.86 12.809C104.068 12.4761 104.174 12.0813 104.174 11.6246Z" fill="white"/>
<path d="M111.412 14.1044H110.284V11.2694C110.284 10.3958 109.944 9.95903 109.26 9.95903C108.925 9.95903 108.655 10.0787 108.446 10.3192C108.237 10.5596 108.132 10.8431 108.132 11.1676V14.1034H107.003V10.5691C107.003 10.1344 106.99 9.66293 106.963 9.15263H107.954L108.006 9.92648H108.038C108.17 9.68603 108.366 9.48758 108.622 9.32903C108.929 9.14423 109.271 9.05078 109.647 9.05078C110.119 9.05078 110.513 9.19988 110.827 9.49913C111.218 9.86558 111.412 10.4126 111.412 11.1392V14.1044Z" fill="white"/>
<path d="M119.008 9.97931H117.765V12.3838C117.765 12.9949 117.986 13.3005 118.423 13.3005C118.626 13.3005 118.794 13.2837 118.926 13.249L118.955 14.0838C118.732 14.1657 118.439 14.2066 118.078 14.2066C117.633 14.2066 117.286 14.0743 117.035 13.8097C116.783 13.5451 116.658 13.0999 116.658 12.4752V9.97931H115.916V9.15506H116.658V8.24786L117.764 7.92236V9.15401H119.007V9.97931H119.008Z" fill="white"/>
<path d="M124.981 14.1046H123.852V11.2906C123.852 10.4034 123.511 9.95924 122.83 9.95924C122.306 9.95924 121.949 10.2165 121.753 10.731C121.719 10.8391 121.7 10.9714 121.7 11.1268V14.1036H120.572V6.88379H121.7V9.86684H121.721C122.077 9.32399 122.586 9.05309 123.246 9.05309C123.714 9.05309 124.1 9.20219 124.407 9.50144C124.79 9.87419 124.981 10.4286 124.981 11.1615V14.1046Z" fill="white"/>
<path d="M131.146 11.3959C131.146 11.5933 131.131 11.7592 131.104 11.8946H127.719C127.735 12.3839 127.896 12.7567 128.209 13.015C128.496 13.246 128.865 13.3615 129.318 13.3615C129.818 13.3615 130.275 13.2838 130.686 13.1273L130.863 13.8917C130.382 14.0954 129.815 14.1973 129.159 14.1973C128.373 14.1973 127.754 13.9715 127.306 13.52C126.856 13.0685 126.633 12.4627 126.633 11.7025C126.633 10.9559 126.841 10.3343 127.26 9.83872C127.697 9.30952 128.288 9.04492 129.034 9.04492C129.765 9.04492 130.319 9.30952 130.694 9.83872C130.997 10.2587 131.146 10.7785 131.146 11.3959ZM130.069 11.1113C130.078 10.7848 130.004 10.5034 129.851 10.2661C129.655 9.96052 129.356 9.80722 128.953 9.80722C128.584 9.80722 128.284 9.95632 128.054 10.2556C127.867 10.4939 127.756 10.7785 127.719 11.1113H130.069Z" fill="white"/>
<path d="M58.3863 33.0789H55.9406L54.601 28.9744H49.9443L48.6682 33.0789H46.2871L50.9006 19.1055H53.7502L58.3863 33.0789ZM54.1971 27.2524L52.9856 23.6037C52.8574 23.2309 52.6173 22.3531 52.263 20.9713H52.2199C52.0788 21.5656 51.8516 22.4434 51.5393 23.6037L50.3493 27.2524H54.1971Z" fill="white"/>
<path d="M70.2507 27.9172C70.2507 29.6308 69.7757 30.9853 68.8259 31.9797C67.9751 32.8648 66.9187 33.3069 65.6576 33.3069C64.2964 33.3069 63.3185 32.8302 62.723 31.8768H62.6799V37.1845H60.3839V26.3202C60.3839 25.2429 60.3548 24.1372 60.2988 23.0032H62.3181L62.4462 24.6003H62.4893C63.255 23.397 64.417 22.7964 65.9764 22.7964C67.1954 22.7964 68.2131 23.2657 69.0273 24.2055C69.8436 25.1463 70.2507 26.3832 70.2507 27.9172ZM67.9116 27.9991C67.9116 27.0184 67.6854 26.2099 67.231 25.5736C66.7345 24.91 66.0679 24.5782 65.2322 24.5782C64.6657 24.5782 64.151 24.763 63.6911 25.1274C63.2302 25.4949 62.9287 25.9747 62.7876 26.569C62.7165 26.8462 62.681 27.073 62.681 27.2515V28.9315C62.681 29.6644 62.9114 30.2829 63.3724 30.7879C63.8333 31.293 64.4321 31.545 65.1687 31.545C66.0334 31.545 66.7065 31.2195 67.1879 30.5706C67.6704 29.9206 67.9116 29.0638 67.9116 27.9991Z" fill="white"/>
<path d="M82.1363 27.9172C82.1363 29.6308 81.6614 30.9853 80.7105 31.9797C79.8608 32.8648 78.8043 33.3069 77.5432 33.3069C76.182 33.3069 75.2042 32.8302 74.6097 31.8768H74.5666V37.1845H72.2706V26.3202C72.2706 25.2429 72.2415 24.1372 72.1855 23.0032H74.2048L74.3329 24.6003H74.376C75.1406 23.397 76.3026 22.7964 77.8631 22.7964C79.0811 22.7964 80.0988 23.2657 80.9151 24.2055C81.7282 25.1463 82.1363 26.3832 82.1363 27.9172ZM79.7972 27.9991C79.7972 27.0184 79.57 26.2099 79.1155 25.5736C78.6191 24.91 77.9546 24.5782 77.1179 24.5782C76.5503 24.5782 76.0366 24.763 75.5757 25.1274C75.1148 25.4949 74.8143 25.9747 74.6732 26.569C74.6032 26.8462 74.5666 27.073 74.5666 27.2515V28.9315C74.5666 29.6644 74.7971 30.2829 75.2559 30.7879C75.7168 31.2919 76.3156 31.545 77.0543 31.545C77.9191 31.545 78.5922 31.2195 79.0736 30.5706C79.556 29.9206 79.7972 29.0638 79.7972 27.9991Z" fill="white"/>
<path d="M95.4262 29.1604C95.4262 30.349 95.003 31.3161 94.1533 32.0626C93.2196 32.8785 91.9198 33.2859 90.2495 33.2859C88.7073 33.2859 87.471 32.9961 86.5352 32.4154L87.0672 30.5496C88.0752 31.1439 89.1812 31.4421 90.3862 31.4421C91.251 31.4421 91.9241 31.251 92.4076 30.8709C92.889 30.4908 93.1292 29.9805 93.1292 29.3442C93.1292 28.7772 92.931 28.2994 92.5336 27.912C92.1384 27.5245 91.4782 27.1644 90.5564 26.8315C88.0472 25.9191 86.7936 24.5824 86.7936 22.8247C86.7936 21.676 87.233 20.7342 88.1129 20.0013C88.9895 19.2673 90.159 18.9009 91.6215 18.9009C92.9256 18.9009 94.009 19.1224 94.8738 19.5645L94.2998 21.3894C93.4921 20.961 92.5788 20.7468 91.5568 20.7468C90.7492 20.7468 90.1181 20.941 89.6658 21.3274C89.2835 21.6729 89.0918 22.0939 89.0918 22.5927C89.0918 23.145 89.3104 23.6017 89.7498 23.9608C90.1321 24.2926 90.8267 24.6517 91.8347 25.0392C93.0678 25.5232 93.9735 26.0892 94.5561 26.7381C95.1365 27.3849 95.4262 28.1944 95.4262 29.1604Z" fill="white"/>
<path d="M103.018 24.6832H100.487V29.5752C100.487 30.8194 100.933 31.441 101.827 31.441C102.237 31.441 102.578 31.4064 102.847 31.3371L102.91 33.037C102.458 33.2019 101.863 33.2848 101.125 33.2848C100.218 33.2848 99.5095 33.015 98.998 32.4763C98.4886 31.9366 98.2323 31.0315 98.2323 29.76V24.6811H96.7246V23.0011H98.2323V21.1563L100.487 20.4927V23.0011H103.018V24.6832Z" fill="white"/>
<path d="M114.436 27.9581C114.436 29.5069 113.982 30.7784 113.075 31.7728C112.124 32.7965 110.862 33.3068 109.289 33.3068C107.772 33.3068 106.565 32.8165 105.665 31.8358C104.765 30.8551 104.314 29.6171 104.314 28.1251C104.314 26.5637 104.778 25.2848 105.707 24.2905C106.634 23.2951 107.886 22.7974 109.459 22.7974C110.975 22.7974 112.195 23.2877 113.116 24.2695C113.997 25.2218 114.436 26.4514 114.436 27.9581ZM112.054 28.0306C112.054 27.1013 111.851 26.3044 111.438 25.6397C110.957 24.8354 110.269 24.4343 109.377 24.4343C108.454 24.4343 107.753 24.8365 107.272 25.6397C106.859 26.3054 106.656 27.115 106.656 28.0726C106.656 29.0018 106.859 29.7988 107.272 30.4624C107.768 31.2667 108.462 31.6678 109.357 31.6678C110.233 31.6678 110.921 31.2583 111.418 30.4414C111.841 29.7641 112.054 28.9588 112.054 28.0306Z" fill="white"/>
<path d="M121.898 24.972C121.671 24.931 121.429 24.91 121.174 24.91C120.367 24.91 119.742 25.2072 119.303 25.8025C118.92 26.3275 118.729 26.9911 118.729 27.7923V33.079H116.434L116.455 26.1763C116.455 25.015 116.426 23.9577 116.369 23.0043H118.369L118.453 24.9321H118.517C118.759 24.2695 119.141 23.7361 119.665 23.3361C120.176 22.9759 120.729 22.7964 121.324 22.7964C121.536 22.7964 121.728 22.8111 121.898 22.8373V24.972Z" fill="white"/>
<path d="M132.168 27.5643C132.168 27.9654 132.141 28.3035 132.084 28.5796H125.196C125.223 29.575 125.556 30.3363 126.196 30.8613C126.776 31.3306 127.527 31.5658 128.449 31.5658C129.469 31.5658 130.399 31.4073 131.236 31.0891L131.595 32.6431C130.618 33.0589 129.463 33.2658 128.131 33.2658C126.529 33.2658 125.271 32.8059 124.355 31.8871C123.442 30.9684 122.984 29.7346 122.984 28.1869C122.984 26.6676 123.41 25.4023 124.262 24.3933C125.153 23.316 126.358 22.7773 127.875 22.7773C129.364 22.7773 130.492 23.316 131.257 24.3933C131.864 25.249 132.168 26.3074 132.168 27.5643ZM129.979 26.9836C129.994 26.32 129.844 25.7467 129.533 25.2627C129.136 24.64 128.525 24.3292 127.703 24.3292C126.953 24.3292 126.342 24.6327 125.876 25.2417C125.494 25.7257 125.266 26.3064 125.196 26.9826H129.979V26.9836Z" fill="white"/>
</svg>
