<svg width="146" height="42" viewBox="0 0 146 42" fill="none" xmlns="http://www.w3.org/2000/svg">
<path d="M140 42H5.38462C2.42442 42 0 39.6362 0 36.75V5.25C0 2.36381 2.42442 1.90735e-06 5.38462 1.90735e-06H140C142.96 1.90735e-06 145.385 2.36381 145.385 5.25V36.75C145.385 39.6362 142.96 42 140 42Z" fill="black"/>
<path d="M140 0.841314C142.493 0.841314 144.522 2.81925 144.522 5.25V36.75C144.522 39.1808 142.493 41.1587 140 41.1587H5.38462C2.89154 41.1587 0.862884 39.1808 0.862884 36.75V5.25C0.862884 2.81925 2.89154 0.841314 5.38462 0.841314H140ZM140 1.90735e-06H5.38462C2.42442 1.90735e-06 0 2.36381 0 5.25V36.75C0 39.6362 2.42442 42 5.38462 42H140C142.96 42 145.385 39.6362 145.385 36.75V5.25C145.385 2.36381 142.96 1.90735e-06 140 1.90735e-06Z" fill="#A6A6A6"/>
<path d="M11.2377 7.91589C10.9214 8.23877 10.7383 8.74145 10.7383 9.39245V32.6132C10.7383 33.2642 10.9214 33.7669 11.2377 34.0898L11.3158 34.1606L24.6615 21.1538V20.8466L11.3158 7.83977L11.2377 7.91589Z" fill="url(#paint0_linear_466_15850)"/>
<path d="M29.1058 25.4917L24.6621 21.1539V20.8468L29.1111 16.5089L29.2108 16.5654L34.4796 19.4883C35.9833 20.3178 35.9833 21.6828 34.4796 22.5176L29.2108 25.4353L29.1058 25.4917Z" fill="url(#paint1_linear_466_15850)"/>
<path d="M29.2108 25.4351L24.6621 21.0002L11.2383 34.0897C11.7377 34.6016 12.5521 34.6633 13.4783 34.1514L29.2108 25.4351Z" fill="url(#paint2_linear_466_15850)"/>
<path d="M29.2108 16.5651L13.4783 7.84875C12.5521 7.34213 11.7377 7.40382 11.2383 7.91569L24.6621 21L29.2108 16.5651Z" fill="url(#paint3_linear_466_15850)"/>
<path d="M51.0647 10.7562C51.0647 11.6329 50.7955 12.3351 50.2651 12.8588C49.6553 13.4796 48.8611 13.792 47.8878 13.792C46.9576 13.792 46.1634 13.4744 45.5119 12.8483C44.859 12.2131 44.5332 11.4334 44.5332 10.5002C44.5332 9.56706 44.859 8.78743 45.5119 8.15743C46.1634 7.52612 46.9576 7.2085 47.8878 7.2085C48.3509 7.2085 48.7924 7.30168 49.2138 7.47493C49.6338 7.6495 49.9757 7.88575 50.2234 8.17712L49.6607 8.731C49.2286 8.23356 48.6403 7.98812 47.8878 7.98812C47.2094 7.98812 46.6211 8.21912 46.1217 8.68506C45.6276 9.15231 45.3799 9.75737 45.3799 10.5002C45.3799 11.2431 45.6276 11.8534 46.1217 12.3207C46.6211 12.7814 47.2094 13.0176 47.8878 13.0176C48.608 13.0176 49.2138 12.7814 49.6917 12.3154C50.0067 12.007 50.1857 11.5817 50.2328 11.0384H47.8878V10.2797H51.0163C51.054 10.4438 51.0647 10.6026 51.0647 10.7562Z" fill="white" stroke="white" stroke-width="0.16" stroke-miterlimit="10"/>
<path d="M56.0284 8.12609H53.0897V10.1211H55.739V10.8797H53.0897V12.8747H56.0284V13.6478H52.2578V7.35303H56.0284V8.12609Z" fill="white" stroke="white" stroke-width="0.16" stroke-miterlimit="10"/>
<path d="M59.5309 13.6478H58.699V8.12609H56.8965V7.35303H61.3347V8.12609H59.5309V13.6478Z" fill="white" stroke="white" stroke-width="0.16" stroke-miterlimit="10"/>
<path d="M64.5469 13.6478V7.35303H65.3775V13.6478H64.5469Z" fill="white" stroke="white" stroke-width="0.16" stroke-miterlimit="10"/>
<path d="M69.0582 13.6478H68.2331V8.12609H66.4238V7.35303H70.8675V8.12609H69.0582V13.6478Z" fill="white" stroke="white" stroke-width="0.16" stroke-miterlimit="10"/>
<path d="M79.2703 12.8378C78.6335 13.4744 77.8447 13.792 76.9037 13.792C75.9574 13.792 75.1685 13.4744 74.5318 12.8378C73.8964 12.2026 73.5801 11.4229 73.5801 10.5002C73.5801 9.57756 73.8964 8.79793 74.5318 8.16268C75.1685 7.52612 75.9574 7.2085 76.9037 7.2085C77.8393 7.2085 78.6282 7.52612 79.2649 8.16793C79.9057 8.80843 80.222 9.58281 80.222 10.5002C80.222 11.4229 79.9057 12.2026 79.2703 12.8378ZM75.147 12.3102C75.6262 12.7814 76.2091 13.0176 76.9037 13.0176C77.593 13.0176 78.1812 12.7814 78.6551 12.3102C79.133 11.839 79.3753 11.2339 79.3753 10.5002C79.3753 9.76656 79.133 9.1615 78.6551 8.69031C78.1812 8.21912 77.593 7.98287 76.9037 7.98287C76.2091 7.98287 75.6262 8.21912 75.147 8.69031C74.6691 9.1615 74.4268 9.76656 74.4268 10.5002C74.4268 11.2339 74.6691 11.839 75.147 12.3102Z" fill="white" stroke="white" stroke-width="0.16" stroke-miterlimit="10"/>
<path d="M81.3887 13.6478V7.35303H82.3983L85.5375 12.2487H85.5739L85.5375 11.0385V7.35303H86.3681V13.6478H85.5012L82.2139 8.51065H82.1775L82.2139 9.72603V13.6478H81.3887Z" fill="white" stroke="white" stroke-width="0.16" stroke-miterlimit="10"/>
<path d="M73.3765 22.84C70.8471 22.84 68.7807 24.7169 68.7807 27.3064C68.7807 29.875 70.8471 31.7716 73.3765 31.7716C75.9113 31.7716 77.9776 29.875 77.9776 27.3064C77.9776 24.7169 75.9113 22.84 73.3765 22.84ZM73.3765 30.0128C71.9886 30.0128 70.7946 28.8959 70.7946 27.3064C70.7946 25.696 71.9886 24.5988 73.3765 24.5988C74.7644 24.5988 75.9638 25.696 75.9638 27.3064C75.9638 28.8959 74.7644 30.0128 73.3765 30.0128ZM63.349 22.84C60.8142 22.84 58.7532 24.7169 58.7532 27.3064C58.7532 29.875 60.8142 31.7716 63.349 31.7716C65.8825 31.7716 67.9448 29.875 67.9448 27.3064C67.9448 24.7169 65.8825 22.84 63.349 22.84ZM63.349 30.0128C61.9598 30.0128 60.7617 28.8959 60.7617 27.3064C60.7617 25.696 61.9598 24.5988 63.349 24.5988C64.7369 24.5988 65.9309 25.696 65.9309 27.3064C65.9309 28.8959 64.7369 30.0128 63.349 30.0128ZM51.4167 24.2089V26.1068H56.065C55.929 27.1673 55.5655 27.9469 55.0082 28.4903C54.3298 29.1466 53.273 29.875 51.4167 29.875C48.5561 29.875 46.3161 27.6241 46.3161 24.835C46.3161 22.0459 48.5561 19.795 51.4167 19.795C52.9634 19.795 54.0888 20.3843 54.9194 21.1482L56.2911 19.8108C55.1294 18.7293 53.584 17.8984 51.4167 17.8984C47.494 17.8984 44.1973 21.0104 44.1973 24.835C44.1973 28.6596 47.494 31.7716 51.4167 31.7716C53.5369 31.7716 55.1294 31.0943 56.3813 29.8238C57.6642 28.573 58.064 26.8143 58.064 25.3941C58.064 24.9531 58.0263 24.5476 57.959 24.2089H51.4167ZM100.209 25.6803C99.8311 24.6814 98.664 22.84 96.2867 22.84C93.9309 22.84 91.9696 24.6499 91.9696 27.3064C91.9696 29.8081 93.9107 31.7716 96.5128 31.7716C98.6169 31.7716 99.8311 30.5208 100.331 29.7923L98.769 28.7778C98.248 29.5206 97.5386 30.0128 96.5128 30.0128C95.4938 30.0128 94.7628 29.5574 94.2944 28.6596L100.421 26.1882L100.209 25.6803ZM93.9632 27.1673C93.9107 25.4453 95.335 24.5633 96.3553 24.5633C97.155 24.5633 97.8334 24.9531 98.0596 25.5109L93.9632 27.1673ZM88.9838 31.4999H90.9976V18.3749H88.9838V31.4999ZM85.6857 23.8349H85.6184C85.1661 23.3125 84.3032 22.84 83.2101 22.84C80.9163 22.84 78.819 24.8035 78.819 27.3209C78.819 29.8238 80.9163 31.7716 83.2101 31.7716C84.3032 31.7716 85.1661 31.2951 85.6184 30.757H85.6857V31.3975C85.6857 33.1051 84.7501 34.0225 83.2411 34.0225C82.0107 34.0225 81.2475 33.1563 80.9325 32.4278L79.1811 33.1405C79.6859 34.3244 81.0226 35.7812 83.2411 35.7812C85.6023 35.7812 87.5946 34.4268 87.5946 31.1311V23.1117H85.6857V23.8349ZM83.3825 30.0128C81.9946 30.0128 80.8328 28.8801 80.8328 27.3209C80.8328 25.7472 81.9946 24.5988 83.3825 24.5988C84.7501 24.5988 85.8284 25.7472 85.8284 27.3209C85.8284 28.8801 84.7501 30.0128 83.3825 30.0128ZM109.638 18.3749H104.821V31.4999H106.83V26.5268H109.638C111.868 26.5268 114.056 24.9531 114.056 22.4502C114.056 19.9486 111.863 18.3749 109.638 18.3749ZM109.69 24.7011H106.83V20.2006H109.69C111.19 20.2006 112.046 21.4146 112.046 22.4502C112.046 23.4661 111.19 24.7011 109.69 24.7011ZM122.106 22.8151C120.655 22.8151 119.146 23.4398 118.525 24.8245L120.307 25.5529C120.691 24.8245 121.396 24.5883 122.142 24.5883C123.184 24.5883 124.241 25.1986 124.257 26.2761V26.4139C123.894 26.2092 123.116 25.906 122.158 25.906C120.239 25.906 118.283 26.9363 118.283 28.8591C118.283 30.6179 119.855 31.7506 121.623 31.7506C122.974 31.7506 123.72 31.156 124.188 30.4643H124.257V31.4789H126.197V26.4441C126.197 24.1171 124.415 22.8151 122.106 22.8151ZM121.864 30.0076C121.207 30.0076 120.291 29.6899 120.291 28.8959C120.291 27.88 121.433 27.4902 122.421 27.4902C123.305 27.4902 123.72 27.6805 124.257 27.9312C124.1 29.1466 123.027 30.0076 121.864 30.0076ZM133.264 23.1025L130.956 28.7922H130.887L128.5 23.1025H126.334L129.92 31.0536L127.874 35.4781H129.973L135.499 23.1025H133.264ZM115.16 31.4999H117.174V18.3749H115.16V31.4999Z" fill="white"/>
<defs>
<linearGradient id="paint0_linear_466_15850" x1="23.4766" y1="32.855" x2="5.86073" y2="14.7875" gradientUnits="userSpaceOnUse">
<stop stop-color="#00A0FF"/>
<stop offset="0.0066" stop-color="#00A1FF"/>
<stop offset="0.2601" stop-color="#00BEFF"/>
<stop offset="0.5122" stop-color="#00D2FF"/>
<stop offset="0.7604" stop-color="#00DFFF"/>
<stop offset="1" stop-color="#00E3FF"/>
</linearGradient>
<linearGradient id="paint1_linear_466_15850" x1="36.4376" y1="20.9989" x2="10.3794" y2="20.9989" gradientUnits="userSpaceOnUse">
<stop stop-color="#FFE000"/>
<stop offset="0.4087" stop-color="#FFBD00"/>
<stop offset="0.7754" stop-color="#FFA500"/>
<stop offset="1" stop-color="#FF9C00"/>
</linearGradient>
<linearGradient id="paint2_linear_466_15850" x1="26.7374" y1="18.5893" x2="2.8488" y2="-5.91183" gradientUnits="userSpaceOnUse">
<stop stop-color="#FF3A44"/>
<stop offset="1" stop-color="#C31162"/>
</linearGradient>
<linearGradient id="paint3_linear_466_15850" x1="7.85922" y1="41.815" x2="18.5265" y2="30.8743" gradientUnits="userSpaceOnUse">
<stop stop-color="#32A071"/>
<stop offset="0.0685" stop-color="#2DA771"/>
<stop offset="0.4762" stop-color="#15CF74"/>
<stop offset="0.8009" stop-color="#06E775"/>
<stop offset="1" stop-color="#00F076"/>
</linearGradient>
</defs>
</svg>
