<svg width="32" height="32" viewBox="0 0 32 32" fill="none" xmlns="http://www.w3.org/2000/svg">
<path d="M16.0007 4.33325C9.56065 4.33325 4.33398 9.55992 4.33398 15.9999C4.33398 22.4399 9.56065 27.6666 16.0007 27.6666C22.4407 27.6666 27.6673 22.4399 27.6673 15.9999C27.6673 9.55992 22.4407 4.33325 16.0007 4.33325ZM17.1673 24.1666H14.834V21.8333H17.1673V24.1666ZM19.5823 15.1249L18.5323 16.1983C17.6923 17.0499 17.1673 17.7499 17.1673 19.4999H14.834V18.9166C14.834 17.6333 15.359 16.4666 16.199 15.6149L17.6457 14.1449C18.0773 13.7249 18.334 13.1416 18.334 12.4999C18.334 11.2166 17.284 10.1666 16.0007 10.1666C14.7173 10.1666 13.6673 11.2166 13.6673 12.4999H11.334C11.334 9.92159 13.4223 7.83325 16.0007 7.83325C18.579 7.83325 20.6673 9.92159 20.6673 12.4999C20.6673 13.5266 20.2473 14.4599 19.5823 15.1249Z" fill="#767680"/>
</svg>
