<svg width="89" height="88" viewBox="0 0 89 88" fill="none" xmlns="http://www.w3.org/2000/svg">
<path d="M32.1101 80.6664C32.1101 82.5068 30.6666 84 28.8876 84H22.4436C13.5593 84 6.33203 76.5235 6.33203 67.3329V60.6666C6.33203 58.8263 7.7755 57.333 9.55452 57.333C11.3335 57.333 12.777 58.8263 12.777 60.6666V67.3329C12.777 72.8465 17.1137 77.3328 22.4436 77.3328H28.8876C30.6666 77.3328 32.1101 78.826 32.1101 80.6664ZM83.6654 60.6666V67.3329C83.6654 76.5225 76.4381 84 67.5538 84H61.1098C59.3307 84 57.8873 82.5068 57.8873 80.6664C57.8873 78.826 59.3307 77.3328 61.1098 77.3328H67.5538C72.8837 77.3328 77.2204 72.8465 77.2204 67.3329V60.6666C77.2204 58.8263 78.6639 57.333 80.4429 57.333C82.2219 57.333 83.6654 58.8263 83.6654 60.6666ZM83.6654 20.6671V27.3334C83.6654 29.1737 82.2219 30.667 80.4429 30.667C78.6639 30.667 77.2204 29.1737 77.2204 27.3334V20.6671C77.2204 15.1535 72.8837 10.6672 67.5538 10.6672H61.1098C59.3307 10.6672 57.8873 9.17397 57.8873 7.33361C57.8873 5.49325 59.3307 4 61.1098 4H67.5538C76.4372 4 83.6654 11.4765 83.6654 20.6671ZM6.33203 27.3334V20.6671C6.33203 11.4765 13.5593 4 22.4436 4H28.8876C30.6666 4 32.1101 5.49325 32.1101 7.33361C32.1101 9.17397 30.6666 10.6672 28.8876 10.6672H22.4436C17.1137 10.6672 12.777 15.1535 12.777 20.6671V27.3334C12.777 29.1737 11.3335 30.667 9.55452 30.667C7.7755 30.667 6.33203 29.1737 6.33203 27.3334Z" fill="url(#paint0_linear_1384_31871)"/>
<g filter="url(#filter0_f_1384_31871)">
<path d="M32.1101 80.6664C32.1101 82.5068 30.6666 84 28.8876 84H22.4436C13.5593 84 6.33203 76.5235 6.33203 67.3329V60.6666C6.33203 58.8263 7.7755 57.333 9.55452 57.333C11.3335 57.333 12.777 58.8263 12.777 60.6666V67.3329C12.777 72.8465 17.1137 77.3328 22.4436 77.3328H28.8876C30.6666 77.3328 32.1101 78.826 32.1101 80.6664ZM83.6654 60.6666V67.3329C83.6654 76.5225 76.4381 84 67.5538 84H61.1098C59.3307 84 57.8873 82.5068 57.8873 80.6664C57.8873 78.826 59.3307 77.3328 61.1098 77.3328H67.5538C72.8837 77.3328 77.2204 72.8465 77.2204 67.3329V60.6666C77.2204 58.8263 78.6639 57.333 80.4429 57.333C82.2219 57.333 83.6654 58.8263 83.6654 60.6666ZM83.6654 20.6671V27.3334C83.6654 29.1737 82.2219 30.667 80.4429 30.667C78.6639 30.667 77.2204 29.1737 77.2204 27.3334V20.6671C77.2204 15.1535 72.8837 10.6672 67.5538 10.6672H61.1098C59.3307 10.6672 57.8873 9.17397 57.8873 7.33361C57.8873 5.49325 59.3307 4 61.1098 4H67.5538C76.4372 4 83.6654 11.4765 83.6654 20.6671ZM6.33203 27.3334V20.6671C6.33203 11.4765 13.5593 4 22.4436 4H28.8876C30.6666 4 32.1101 5.49325 32.1101 7.33361C32.1101 9.17397 30.6666 10.6672 28.8876 10.6672H22.4436C17.1137 10.6672 12.777 15.1535 12.777 20.6671V27.3334C12.777 29.1737 11.3335 30.667 9.55452 30.667C7.7755 30.667 6.33203 29.1737 6.33203 27.3334Z" fill="url(#paint1_linear_1384_31871)"/>
</g>
<g opacity="0.5" filter="url(#filter1_f_1384_31871)">
<rect x="20" y="20" width="49" height="48" fill="url(#paint2_linear_1384_31871)"/>
</g>
<g filter="url(#filter2_d_1384_31871)">
<mask id="path-4-inside-1_1384_31871" fill="white">
<path fill-rule="evenodd" clip-rule="evenodd" d="M27.9538 14.6641H60.7076C67.4953 14.6641 72.9974 20.2942 72.9974 27.2397V60.7551C72.9974 67.7006 67.4953 73.3307 60.7076 73.3307H27.9538C21.1662 73.3307 15.6641 67.7006 15.6641 60.7551V27.2397C15.6641 20.2942 21.1662 14.6641 27.9538 14.6641ZM36.5415 62.2144C39.6087 62.2144 42.1052 59.6588 42.1052 56.5213V51.9668C42.1052 48.8283 39.6078 46.2737 36.5415 46.2737H32.0906C29.0234 46.2737 26.5269 48.8292 26.5269 51.9668V56.5213C26.5269 59.6598 29.0243 62.2144 32.0906 62.2144H36.5415ZM36.5415 41.7202C39.6087 41.7202 42.1052 39.1646 42.1052 36.0271V31.4726C42.1052 28.3341 39.6078 25.7795 36.5415 25.7795H32.0906C29.0234 25.7795 26.5269 28.335 26.5269 31.4726V36.0271C26.5269 39.1655 29.0243 41.7202 32.0906 41.7202H36.5415ZM46.5562 58.7985C46.5562 60.6846 48.0521 62.2144 49.8944 62.2144C51.7368 62.2144 53.2327 60.6837 53.2327 58.7985C53.2327 56.9134 51.7377 55.3827 49.8944 55.3827C48.0512 55.3827 46.5562 56.9124 46.5562 58.7985ZM46.5562 49.6896C46.5562 51.5757 48.0521 53.1054 49.8944 53.1054C51.7368 53.1054 53.2327 51.5747 53.2327 49.6896C53.2327 47.8044 51.7377 46.2737 49.8944 46.2737C48.0512 46.2737 46.5562 47.8035 46.5562 49.6896ZM55.4582 49.6896C55.4582 51.5757 56.9541 53.1054 58.7964 53.1054C60.6387 53.1054 62.1346 51.5747 62.1346 49.6896C62.1346 47.8044 60.6396 46.2737 58.7964 46.2737C56.9531 46.2737 55.4582 47.8035 55.4582 49.6896ZM56.5709 41.7202C59.6381 41.7202 62.1346 39.1646 62.1346 36.0271V31.4726C62.1346 28.3341 59.6371 25.7795 56.5709 25.7795H52.1199C49.0528 25.7795 46.5562 28.335 46.5562 31.4726V36.0271C46.5562 39.1655 49.0537 41.7202 52.1199 41.7202H56.5709ZM52.2871 30.6644H56.5171C57.1012 30.6644 57.5746 31.1379 57.5746 31.7219V35.9519C57.5746 36.5359 57.1012 37.0094 56.5171 37.0094H52.2871C51.7031 37.0094 51.2296 36.5359 51.2296 35.9519V31.7219C51.2296 31.1379 51.7031 30.6644 52.2871 30.6644ZM32.2871 51.1281H36.5171C37.1012 51.1281 37.5746 51.6015 37.5746 52.1856V56.4155C37.5746 56.9996 37.1012 57.473 36.5171 57.473H32.2871C31.7031 57.473 31.2296 56.9996 31.2296 56.4155V52.1856C31.2296 51.6015 31.7031 51.1281 32.2871 51.1281ZM36.2641 30.8725H32.0341C31.45 30.8725 30.9766 31.3459 30.9766 31.93V36.1599C30.9766 36.744 31.45 37.2174 32.0341 37.2174H36.2641C36.8481 37.2174 37.3215 36.744 37.3215 36.1599V31.93C37.3215 31.3459 36.8481 30.8725 36.2641 30.8725Z"/>
</mask>
<path fill-rule="evenodd" clip-rule="evenodd" d="M27.9538 14.6641H60.7076C67.4953 14.6641 72.9974 20.2942 72.9974 27.2397V60.7551C72.9974 67.7006 67.4953 73.3307 60.7076 73.3307H27.9538C21.1662 73.3307 15.6641 67.7006 15.6641 60.7551V27.2397C15.6641 20.2942 21.1662 14.6641 27.9538 14.6641ZM36.5415 62.2144C39.6087 62.2144 42.1052 59.6588 42.1052 56.5213V51.9668C42.1052 48.8283 39.6078 46.2737 36.5415 46.2737H32.0906C29.0234 46.2737 26.5269 48.8292 26.5269 51.9668V56.5213C26.5269 59.6598 29.0243 62.2144 32.0906 62.2144H36.5415ZM36.5415 41.7202C39.6087 41.7202 42.1052 39.1646 42.1052 36.0271V31.4726C42.1052 28.3341 39.6078 25.7795 36.5415 25.7795H32.0906C29.0234 25.7795 26.5269 28.335 26.5269 31.4726V36.0271C26.5269 39.1655 29.0243 41.7202 32.0906 41.7202H36.5415ZM46.5562 58.7985C46.5562 60.6846 48.0521 62.2144 49.8944 62.2144C51.7368 62.2144 53.2327 60.6837 53.2327 58.7985C53.2327 56.9134 51.7377 55.3827 49.8944 55.3827C48.0512 55.3827 46.5562 56.9124 46.5562 58.7985ZM46.5562 49.6896C46.5562 51.5757 48.0521 53.1054 49.8944 53.1054C51.7368 53.1054 53.2327 51.5747 53.2327 49.6896C53.2327 47.8044 51.7377 46.2737 49.8944 46.2737C48.0512 46.2737 46.5562 47.8035 46.5562 49.6896ZM55.4582 49.6896C55.4582 51.5757 56.9541 53.1054 58.7964 53.1054C60.6387 53.1054 62.1346 51.5747 62.1346 49.6896C62.1346 47.8044 60.6396 46.2737 58.7964 46.2737C56.9531 46.2737 55.4582 47.8035 55.4582 49.6896ZM56.5709 41.7202C59.6381 41.7202 62.1346 39.1646 62.1346 36.0271V31.4726C62.1346 28.3341 59.6371 25.7795 56.5709 25.7795H52.1199C49.0528 25.7795 46.5562 28.335 46.5562 31.4726V36.0271C46.5562 39.1655 49.0537 41.7202 52.1199 41.7202H56.5709ZM52.2871 30.6644H56.5171C57.1012 30.6644 57.5746 31.1379 57.5746 31.7219V35.9519C57.5746 36.5359 57.1012 37.0094 56.5171 37.0094H52.2871C51.7031 37.0094 51.2296 36.5359 51.2296 35.9519V31.7219C51.2296 31.1379 51.7031 30.6644 52.2871 30.6644ZM32.2871 51.1281H36.5171C37.1012 51.1281 37.5746 51.6015 37.5746 52.1856V56.4155C37.5746 56.9996 37.1012 57.473 36.5171 57.473H32.2871C31.7031 57.473 31.2296 56.9996 31.2296 56.4155V52.1856C31.2296 51.6015 31.7031 51.1281 32.2871 51.1281ZM36.2641 30.8725H32.0341C31.45 30.8725 30.9766 31.3459 30.9766 31.93V36.1599C30.9766 36.744 31.45 37.2174 32.0341 37.2174H36.2641C36.8481 37.2174 37.3215 36.744 37.3215 36.1599V31.93C37.3215 31.3459 36.8481 30.8725 36.2641 30.8725Z" fill="url(#paint3_linear_1384_31871)" shape-rendering="crispEdges"/>
<path d="M60.7076 12.6641H27.9538V16.6641H60.7076V12.6641ZM74.9974 27.2397C74.9974 19.2332 68.6429 12.6641 60.7076 12.6641V16.6641C66.3476 16.6641 70.9974 21.3551 70.9974 27.2397H74.9974ZM74.9974 60.7551V27.2397H70.9974V60.7551H74.9974ZM60.7076 75.3307C68.6429 75.3307 74.9974 68.7616 74.9974 60.7551H70.9974C70.9974 66.6397 66.3476 71.3307 60.7076 71.3307V75.3307ZM27.9538 75.3307H60.7076V71.3307H27.9538V75.3307ZM13.6641 60.7551C13.6641 68.7616 20.0185 75.3307 27.9538 75.3307V71.3307C22.3139 71.3307 17.6641 66.6397 17.6641 60.7551H13.6641ZM13.6641 27.2397V60.7551H17.6641V27.2397H13.6641ZM27.9538 12.6641C20.0185 12.6641 13.6641 19.2332 13.6641 27.2397H17.6641C17.6641 21.3551 22.3139 16.6641 27.9538 16.6641V12.6641ZM40.1052 56.5213C40.1052 58.5981 38.4608 60.2144 36.5415 60.2144V64.2144C40.7566 64.2144 44.1052 60.7196 44.1052 56.5213H40.1052ZM40.1052 51.9668V56.5213H44.1052V51.9668H40.1052ZM36.5415 48.2737C38.4603 48.2737 40.1052 49.8895 40.1052 51.9668H44.1052C44.1052 47.7671 40.7552 44.2737 36.5415 44.2737V48.2737ZM32.0906 48.2737H36.5415V44.2737H32.0906V48.2737ZM28.5269 51.9668C28.5269 49.89 30.1713 48.2737 32.0906 48.2737V44.2737C27.8755 44.2737 24.5269 47.7685 24.5269 51.9668H28.5269ZM28.5269 56.5213V51.9668H24.5269V56.5213H28.5269ZM32.0906 60.2144C30.1718 60.2144 28.5269 58.5986 28.5269 56.5213H24.5269C24.5269 60.721 27.8769 64.2144 32.0906 64.2144V60.2144ZM36.5415 60.2144H32.0906V64.2144H36.5415V60.2144ZM40.1052 36.0271C40.1052 38.1038 38.4608 39.7202 36.5415 39.7202V43.7202C40.7566 43.7202 44.1052 40.2254 44.1052 36.0271H40.1052ZM40.1052 31.4726V36.0271H44.1052V31.4726H40.1052ZM36.5415 27.7795C38.4603 27.7795 40.1052 29.3953 40.1052 31.4726H44.1052C44.1052 27.2729 40.7552 23.7795 36.5415 23.7795V27.7795ZM32.0906 27.7795H36.5415V23.7795H32.0906V27.7795ZM28.5269 31.4726C28.5269 29.3958 30.1713 27.7795 32.0906 27.7795V23.7795C27.8755 23.7795 24.5269 27.2743 24.5269 31.4726H28.5269ZM28.5269 36.0271V31.4726H24.5269V36.0271H28.5269ZM32.0906 39.7202C30.1718 39.7202 28.5269 38.1044 28.5269 36.0271H24.5269C24.5269 40.2267 27.8769 43.7202 32.0906 43.7202V39.7202ZM36.5415 39.7202H32.0906V43.7202H36.5415V39.7202ZM49.8944 60.2144C49.1994 60.2144 48.5562 59.6233 48.5562 58.7985H44.5562C44.5562 61.746 46.9048 64.2144 49.8944 64.2144V60.2144ZM51.2327 58.7985C51.2327 59.6227 50.5891 60.2144 49.8944 60.2144V64.2144C52.8844 64.2144 55.2327 61.7446 55.2327 58.7985H51.2327ZM49.8944 57.3827C50.5897 57.3827 51.2327 57.974 51.2327 58.7985H55.2327C55.2327 55.8527 52.8857 53.3827 49.8944 53.3827V57.3827ZM48.5562 58.7985C48.5562 57.9734 49.1989 57.3827 49.8944 57.3827V53.3827C46.9035 53.3827 44.5562 55.8514 44.5562 58.7985H48.5562ZM49.8944 51.1054C49.1994 51.1054 48.5562 50.5143 48.5562 49.6896H44.5562C44.5562 52.637 46.9048 55.1054 49.8944 55.1054V51.1054ZM51.2327 49.6896C51.2327 50.5137 50.5891 51.1054 49.8944 51.1054V55.1054C52.8844 55.1054 55.2327 52.6357 55.2327 49.6896H51.2327ZM49.8944 48.2737C50.5897 48.2737 51.2327 48.865 51.2327 49.6896H55.2327C55.2327 46.7438 52.8857 44.2737 49.8944 44.2737V48.2737ZM48.5562 49.6896C48.5562 48.8644 49.1989 48.2737 49.8944 48.2737V44.2737C46.9035 44.2737 44.5562 46.7425 44.5562 49.6896H48.5562ZM58.7964 51.1054C58.1014 51.1054 57.4582 50.5143 57.4582 49.6896H53.4582C53.4582 52.637 55.8067 55.1054 58.7964 55.1054V51.1054ZM60.1346 49.6896C60.1346 50.5137 59.491 51.1054 58.7964 51.1054V55.1054C61.7864 55.1054 64.1346 52.6357 64.1346 49.6896H60.1346ZM58.7964 48.2737C59.4916 48.2737 60.1346 48.865 60.1346 49.6896H64.1346C64.1346 46.7438 61.7876 44.2737 58.7964 44.2737V48.2737ZM57.4582 49.6896C57.4582 48.8644 58.1008 48.2737 58.7964 48.2737V44.2737C55.8055 44.2737 53.4582 46.7425 53.4582 49.6896H57.4582ZM60.1346 36.0271C60.1346 38.1038 58.4902 39.7202 56.5709 39.7202V43.7202C60.7859 43.7202 64.1346 40.2254 64.1346 36.0271H60.1346ZM60.1346 31.4726V36.0271H64.1346V31.4726H60.1346ZM56.5709 27.7795C58.4897 27.7795 60.1346 29.3953 60.1346 31.4726H64.1346C64.1346 27.2729 60.7846 23.7795 56.5709 23.7795V27.7795ZM52.1199 27.7795H56.5709V23.7795H52.1199V27.7795ZM48.5562 31.4726C48.5562 29.3958 50.2006 27.7795 52.1199 27.7795V23.7795C47.9049 23.7795 44.5562 27.2743 44.5562 31.4726H48.5562ZM48.5562 36.0271V31.4726H44.5562V36.0271H48.5562ZM52.1199 39.7202C50.2011 39.7202 48.5562 38.1044 48.5562 36.0271H44.5562C44.5562 40.2267 47.9062 43.7202 52.1199 43.7202V39.7202ZM56.5709 39.7202H52.1199V43.7202H56.5709V39.7202ZM56.5171 28.6644H52.2871V32.6644H56.5171V28.6644ZM59.5746 31.7219C59.5746 30.0333 58.2057 28.6644 56.5171 28.6644V32.6644C55.9966 32.6644 55.5746 32.2424 55.5746 31.7219H59.5746ZM59.5746 35.9519V31.7219H55.5746V35.9519H59.5746ZM56.5171 39.0094C58.2057 39.0094 59.5746 37.6405 59.5746 35.9519H55.5746C55.5746 35.4313 55.9966 35.0094 56.5171 35.0094V39.0094ZM52.2871 39.0094H56.5171V35.0094H52.2871V39.0094ZM49.2296 35.9519C49.2296 37.6405 50.5985 39.0094 52.2871 39.0094V35.0094C52.8076 35.0094 53.2296 35.4314 53.2296 35.9519H49.2296ZM49.2296 31.7219V35.9519H53.2296V31.7219H49.2296ZM52.2871 28.6644C50.5985 28.6644 49.2296 30.0333 49.2296 31.7219H53.2296C53.2296 32.2424 52.8077 32.6644 52.2871 32.6644V28.6644ZM36.5171 49.1281H32.2871V53.1281H36.5171V49.1281ZM39.5746 52.1856C39.5746 50.4969 38.2057 49.1281 36.5171 49.1281V53.1281C35.9966 53.1281 35.5746 52.7061 35.5746 52.1856H39.5746ZM39.5746 56.4155V52.1856H35.5746V56.4155H39.5746ZM36.5171 59.473C38.2057 59.473 39.5746 58.1041 39.5746 56.4155H35.5746C35.5746 55.895 35.9966 55.473 36.5171 55.473V59.473ZM32.2871 59.473H36.5171V55.473H32.2871V59.473ZM29.2296 56.4155C29.2296 58.1041 30.5985 59.473 32.2871 59.473V55.473C32.8077 55.473 33.2296 55.895 33.2296 56.4155H29.2296ZM29.2296 52.1856V56.4155H33.2296V52.1856H29.2296ZM32.2871 49.1281C30.5985 49.1281 29.2296 50.4969 29.2296 52.1856H33.2296C33.2296 52.7061 32.8076 53.1281 32.2871 53.1281V49.1281ZM32.0341 32.8725H36.2641V28.8725H32.0341V32.8725ZM32.9766 31.93C32.9766 32.4505 32.5546 32.8725 32.0341 32.8725V28.8725C30.3455 28.8725 28.9766 30.2413 28.9766 31.93H32.9766ZM32.9766 36.1599V31.93H28.9766V36.1599H32.9766ZM32.0341 35.2174C32.5546 35.2174 32.9766 35.6394 32.9766 36.1599H28.9766C28.9766 37.8486 30.3455 39.2174 32.0341 39.2174V35.2174ZM36.2641 35.2174H32.0341V39.2174H36.2641V35.2174ZM35.3215 36.1599C35.3215 35.6394 35.7435 35.2174 36.2641 35.2174V39.2174C37.9527 39.2174 39.3215 37.8486 39.3215 36.1599H35.3215ZM35.3215 31.93V36.1599H39.3215V31.93H35.3215ZM36.2641 32.8725C35.7435 32.8725 35.3215 32.4505 35.3215 31.93H39.3215C39.3215 30.2414 37.9527 28.8725 36.2641 28.8725V32.8725Z" fill="url(#paint4_linear_1384_31871)" mask="url(#path-4-inside-1_1384_31871)"/>
</g>
<defs>
<filter id="filter0_f_1384_31871" x="2.33203" y="0" width="85.332" height="88" filterUnits="userSpaceOnUse" color-interpolation-filters="sRGB">
<feFlood flood-opacity="0" result="BackgroundImageFix"/>
<feBlend mode="normal" in="SourceGraphic" in2="BackgroundImageFix" result="shape"/>
<feGaussianBlur stdDeviation="2" result="effect1_foregroundBlur_1384_31871"/>
</filter>
<filter id="filter1_f_1384_31871" x="0" y="0" width="89" height="88" filterUnits="userSpaceOnUse" color-interpolation-filters="sRGB">
<feFlood flood-opacity="0" result="BackgroundImageFix"/>
<feBlend mode="normal" in="SourceGraphic" in2="BackgroundImageFix" result="shape"/>
<feGaussianBlur stdDeviation="10" result="effect1_foregroundBlur_1384_31871"/>
</filter>
<filter id="filter2_d_1384_31871" x="13.6641" y="14.6641" width="65.332" height="66.668" filterUnits="userSpaceOnUse" color-interpolation-filters="sRGB">
<feFlood flood-opacity="0" result="BackgroundImageFix"/>
<feColorMatrix in="SourceAlpha" type="matrix" values="0 0 0 0 0 0 0 0 0 0 0 0 0 0 0 0 0 0 127 0" result="hardAlpha"/>
<feOffset dx="2" dy="4"/>
<feGaussianBlur stdDeviation="2"/>
<feComposite in2="hardAlpha" operator="out"/>
<feColorMatrix type="matrix" values="0 0 0 0 0 0 0 0 0 0 0 0 0 0 0 0 0 0 0.25 0"/>
<feBlend mode="normal" in2="BackgroundImageFix" result="effect1_dropShadow_1384_31871"/>
<feBlend mode="normal" in="SourceGraphic" in2="effect1_dropShadow_1384_31871" result="shape"/>
</filter>
<linearGradient id="paint0_linear_1384_31871" x1="44.9987" y1="4" x2="44.9987" y2="84" gradientUnits="userSpaceOnUse">
<stop stop-color="#FF5721"/>
<stop offset="1" stop-color="#0E26FF"/>
</linearGradient>
<linearGradient id="paint1_linear_1384_31871" x1="44.9987" y1="4" x2="44.9987" y2="84" gradientUnits="userSpaceOnUse">
<stop stop-color="#FF5721"/>
<stop offset="1" stop-color="#0E26FF"/>
</linearGradient>
<linearGradient id="paint2_linear_1384_31871" x1="44.5" y1="20" x2="44.5" y2="68" gradientUnits="userSpaceOnUse">
<stop stop-color="#FF5721"/>
<stop offset="1" stop-color="#0E26FF"/>
</linearGradient>
<linearGradient id="paint3_linear_1384_31871" x1="21.4448" y1="69.8235" x2="69.0392" y2="14.787" gradientUnits="userSpaceOnUse">
<stop stop-color="white" stop-opacity="0.5"/>
<stop offset="1" stop-color="white" stop-opacity="0.2"/>
</linearGradient>
<linearGradient id="paint4_linear_1384_31871" x1="18.7049" y1="18.1713" x2="70.3488" y2="70.8653" gradientUnits="userSpaceOnUse">
<stop stop-color="white"/>
<stop offset="1" stop-color="white" stop-opacity="0"/>
</linearGradient>
</defs>
</svg>
