<svg width="89" height="88" viewBox="0 0 89 88" fill="none" xmlns="http://www.w3.org/2000/svg">
<path d="M32.1101 80.6664C32.1101 82.5068 30.6666 84 28.8876 84H22.4436C13.5593 84 6.33203 76.5235 6.33203 67.3329V60.6666C6.33203 58.8263 7.7755 57.333 9.55452 57.333C11.3335 57.333 12.777 58.8263 12.777 60.6666V67.3329C12.777 72.8465 17.1137 77.3328 22.4436 77.3328H28.8876C30.6666 77.3328 32.1101 78.826 32.1101 80.6664ZM83.6654 60.6666V67.3329C83.6654 76.5225 76.4381 84 67.5538 84H61.1098C59.3307 84 57.8873 82.5068 57.8873 80.6664C57.8873 78.826 59.3307 77.3328 61.1098 77.3328H67.5538C72.8837 77.3328 77.2204 72.8465 77.2204 67.3329V60.6666C77.2204 58.8263 78.6639 57.333 80.4429 57.333C82.2219 57.333 83.6654 58.8263 83.6654 60.6666ZM83.6654 20.6671V27.3334C83.6654 29.1737 82.2219 30.667 80.4429 30.667C78.6639 30.667 77.2204 29.1737 77.2204 27.3334V20.6671C77.2204 15.1535 72.8837 10.6672 67.5538 10.6672H61.1098C59.3307 10.6672 57.8873 9.17397 57.8873 7.33361C57.8873 5.49325 59.3307 4 61.1098 4H67.5538C76.4372 4 83.6654 11.4765 83.6654 20.6671ZM6.33203 27.3334V20.6671C6.33203 11.4765 13.5593 4 22.4436 4H28.8876C30.6666 4 32.1101 5.49325 32.1101 7.33361C32.1101 9.17397 30.6666 10.6672 28.8876 10.6672H22.4436C17.1137 10.6672 12.777 15.1535 12.777 20.6671V27.3334C12.777 29.1737 11.3335 30.667 9.55452 30.667C7.7755 30.667 6.33203 29.1737 6.33203 27.3334Z" fill="url(#paint0_linear_1384_31541)"/>
<g filter="url(#filter0_f_1384_31541)">
<path d="M32.1101 80.6664C32.1101 82.5068 30.6666 84 28.8876 84H22.4436C13.5593 84 6.33203 76.5235 6.33203 67.3329V60.6666C6.33203 58.8263 7.7755 57.333 9.55452 57.333C11.3335 57.333 12.777 58.8263 12.777 60.6666V67.3329C12.777 72.8465 17.1137 77.3328 22.4436 77.3328H28.8876C30.6666 77.3328 32.1101 78.826 32.1101 80.6664ZM83.6654 60.6666V67.3329C83.6654 76.5225 76.4381 84 67.5538 84H61.1098C59.3307 84 57.8873 82.5068 57.8873 80.6664C57.8873 78.826 59.3307 77.3328 61.1098 77.3328H67.5538C72.8837 77.3328 77.2204 72.8465 77.2204 67.3329V60.6666C77.2204 58.8263 78.6639 57.333 80.4429 57.333C82.2219 57.333 83.6654 58.8263 83.6654 60.6666ZM83.6654 20.6671V27.3334C83.6654 29.1737 82.2219 30.667 80.4429 30.667C78.6639 30.667 77.2204 29.1737 77.2204 27.3334V20.6671C77.2204 15.1535 72.8837 10.6672 67.5538 10.6672H61.1098C59.3307 10.6672 57.8873 9.17397 57.8873 7.33361C57.8873 5.49325 59.3307 4 61.1098 4H67.5538C76.4372 4 83.6654 11.4765 83.6654 20.6671ZM6.33203 27.3334V20.6671C6.33203 11.4765 13.5593 4 22.4436 4H28.8876C30.6666 4 32.1101 5.49325 32.1101 7.33361C32.1101 9.17397 30.6666 10.6672 28.8876 10.6672H22.4436C17.1137 10.6672 12.777 15.1535 12.777 20.6671V27.3334C12.777 29.1737 11.3335 30.667 9.55452 30.667C7.7755 30.667 6.33203 29.1737 6.33203 27.3334Z" fill="url(#paint1_linear_1384_31541)"/>
</g>
<g opacity="0.5" filter="url(#filter1_f_1384_31541)">
<rect x="20" y="20" width="49" height="48" fill="url(#paint2_linear_1384_31541)"/>
</g>
<g filter="url(#filter2_d_1384_31541)">
<mask id="path-4-inside-1_1384_31541" fill="white">
<path fill-rule="evenodd" clip-rule="evenodd" d="M44.832 71C60.0199 71 72.332 58.6878 72.332 43.5C72.332 28.3122 60.0199 16 44.832 16C29.6442 16 17.332 28.3122 17.332 43.5C17.332 58.6878 29.6442 71 44.832 71ZM34.8498 52.7092C35.6193 51.8453 36.94 51.7641 37.8093 52.5246L37.7982 52.5209L37.8019 52.5246C37.813 52.532 37.8352 52.5505 37.8648 52.5763C37.8849 52.5907 37.9086 52.6086 37.9361 52.6292L37.9363 52.6293C38.0002 52.6772 38.0844 52.7404 38.1903 52.8126C38.49 53.023 38.9561 53.3147 39.5665 53.61C40.791 54.2007 42.5778 54.7988 44.8307 54.7988C47.0837 54.7988 48.8742 54.2007 50.095 53.61C50.7053 53.3147 51.1715 53.023 51.4711 52.8126C51.6191 52.7092 51.7301 52.628 51.793 52.5763C51.8263 52.5505 51.8596 52.5209 51.8596 52.5209C52.7289 51.7604 54.0533 51.8416 54.8228 52.7055C55.661 53.7128 55.4214 55.0881 54.4195 55.8657C54.29 55.9654 54.1125 56.102 53.8831 56.2607C53.4281 56.5782 52.7733 56.988 51.9372 57.3904C50.2688 58.1989 47.8457 59 44.8381 59C41.8305 59 39.4111 58.1989 37.739 57.3904C36.903 56.9843 36.2482 56.5782 35.7932 56.2607C35.5638 56.102 35.3825 55.969 35.2567 55.8657C35.1939 55.8177 35.1384 55.7734 35.1014 55.7402C34.1765 55.0018 34.0766 53.5768 34.8498 52.7092ZM59.332 36.5C59.332 38.4347 57.7667 40 55.832 40C53.8973 40 52.332 38.4301 52.332 36.5C52.332 34.5699 53.8973 33 55.832 33C57.7667 33 59.332 34.5699 59.332 36.5ZM34.832 40C36.7667 40 38.332 38.4347 38.332 36.5C38.332 34.5699 36.7667 33 34.832 33C32.8973 33 31.332 34.5699 31.332 36.5C31.332 38.4301 32.8973 40 34.832 40Z"/>
</mask>
<path fill-rule="evenodd" clip-rule="evenodd" d="M44.832 71C60.0199 71 72.332 58.6878 72.332 43.5C72.332 28.3122 60.0199 16 44.832 16C29.6442 16 17.332 28.3122 17.332 43.5C17.332 58.6878 29.6442 71 44.832 71ZM34.8498 52.7092C35.6193 51.8453 36.94 51.7641 37.8093 52.5246L37.7982 52.5209L37.8019 52.5246C37.813 52.532 37.8352 52.5505 37.8648 52.5763C37.8849 52.5907 37.9086 52.6086 37.9361 52.6292L37.9363 52.6293C38.0002 52.6772 38.0844 52.7404 38.1903 52.8126C38.49 53.023 38.9561 53.3147 39.5665 53.61C40.791 54.2007 42.5778 54.7988 44.8307 54.7988C47.0837 54.7988 48.8742 54.2007 50.095 53.61C50.7053 53.3147 51.1715 53.023 51.4711 52.8126C51.6191 52.7092 51.7301 52.628 51.793 52.5763C51.8263 52.5505 51.8596 52.5209 51.8596 52.5209C52.7289 51.7604 54.0533 51.8416 54.8228 52.7055C55.661 53.7128 55.4214 55.0881 54.4195 55.8657C54.29 55.9654 54.1125 56.102 53.8831 56.2607C53.4281 56.5782 52.7733 56.988 51.9372 57.3904C50.2688 58.1989 47.8457 59 44.8381 59C41.8305 59 39.4111 58.1989 37.739 57.3904C36.903 56.9843 36.2482 56.5782 35.7932 56.2607C35.5638 56.102 35.3825 55.969 35.2567 55.8657C35.1939 55.8177 35.1384 55.7734 35.1014 55.7402C34.1765 55.0018 34.0766 53.5768 34.8498 52.7092ZM59.332 36.5C59.332 38.4347 57.7667 40 55.832 40C53.8973 40 52.332 38.4301 52.332 36.5C52.332 34.5699 53.8973 33 55.832 33C57.7667 33 59.332 34.5699 59.332 36.5ZM34.832 40C36.7667 40 38.332 38.4347 38.332 36.5C38.332 34.5699 36.7667 33 34.832 33C32.8973 33 31.332 34.5699 31.332 36.5C31.332 38.4301 32.8973 40 34.832 40Z" fill="url(#paint3_linear_1384_31541)" shape-rendering="crispEdges"/>
<path d="M37.8093 52.5246L37.1784 54.4225L39.1262 51.0193L37.8093 52.5246ZM34.8498 52.7092L36.3429 54.0398L36.3433 54.0395L34.8498 52.7092ZM37.7982 52.5209L38.4291 50.623L36.3858 53.937L37.7982 52.5209ZM37.8019 52.5246L36.3895 53.9407L36.5294 54.0802L36.694 54.1897L37.8019 52.5246ZM37.8648 52.5763L36.5494 54.0829L36.6198 54.1443L36.6955 54.1989L37.8648 52.5763ZM37.9361 52.6292L39.1449 51.0358L39.1358 51.0289L37.9361 52.6292ZM37.9363 52.6293L36.7275 54.2227L36.7365 54.2295L37.9363 52.6293ZM38.1903 52.8126L39.3397 51.1758L39.3283 51.1678L39.3167 51.1599L38.1903 52.8126ZM39.5665 53.61L38.6954 55.4103L38.6976 55.4114L39.5665 53.61ZM50.095 53.61L49.2239 51.8097H49.2239L50.095 53.61ZM51.4711 52.8126L50.3258 51.173L50.3217 51.1758L51.4711 52.8126ZM51.793 52.5763L50.5667 50.9963L50.5447 51.0134L50.5231 51.0312L51.793 52.5763ZM51.8596 52.5209L50.5427 51.0156L50.5324 51.0247L51.8596 52.5209ZM54.8228 52.7055L56.3601 51.4262L56.3386 51.4004L56.3162 51.3753L54.8228 52.7055ZM54.4195 55.8657L55.6396 57.4505L55.6458 57.4456L54.4195 55.8657ZM53.8831 56.2607L52.7449 54.6161L52.7387 54.6205L53.8831 56.2607ZM51.9372 57.3904L51.0699 55.5882L51.0651 55.5906L51.9372 57.3904ZM37.739 57.3904L36.8652 59.1894L36.8684 59.1909L37.739 57.3904ZM35.7932 56.2607L36.9376 54.6205L36.9314 54.6162L35.7932 56.2607ZM35.2567 55.8657L36.5266 54.3205L36.4987 54.2976L36.4701 54.2758L35.2567 55.8657ZM35.1014 55.7402L36.4378 54.2522L36.3946 54.2134L36.3492 54.1771L35.1014 55.7402ZM70.332 43.5C70.332 57.5833 58.9153 69 44.832 69V73C61.1244 73 74.332 59.7924 74.332 43.5H70.332ZM44.832 18C58.9153 18 70.332 29.4167 70.332 43.5H74.332C74.332 27.2076 61.1244 14 44.832 14V18ZM19.332 43.5C19.332 29.4167 30.7488 18 44.832 18V14C28.5396 14 15.332 27.2076 15.332 43.5H19.332ZM44.832 69C30.7488 69 19.332 57.5833 19.332 43.5H15.332C15.332 59.7924 28.5396 73 44.832 73V69ZM39.1262 51.0193C37.4312 49.5366 34.8563 49.6949 33.3564 51.3789L36.3433 54.0395C36.3822 53.9957 36.4487 53.9916 36.4925 54.0299L39.1262 51.0193ZM37.1673 54.4188L37.1784 54.4225L38.4402 50.6267L38.4291 50.623L37.1673 54.4188ZM39.2143 51.1086L39.2106 51.1049L36.3858 53.937L36.3895 53.9407L39.2143 51.1086ZM39.1802 51.0697C39.1585 51.0508 39.1298 51.026 39.0987 51.0004C39.0842 50.9884 39.0078 50.9247 38.9099 50.8595L36.694 54.1897C36.6648 54.1703 36.6417 54.1537 36.6265 54.1426C36.6107 54.1311 36.5979 54.1214 36.589 54.1144C36.5716 54.101 36.5592 54.0909 36.5542 54.0867C36.5443 54.0786 36.5416 54.076 36.5494 54.0829L39.1802 51.0697ZM39.1358 51.0289C39.1137 51.0124 39.0728 50.9816 39.0341 50.9537L36.6955 54.1989C36.694 54.1978 36.696 54.1992 36.7041 54.2053C36.7123 54.2113 36.7218 54.2185 36.7365 54.2295L39.1358 51.0289ZM39.1451 51.0359L39.1449 51.0358L36.7274 54.2226L36.7275 54.2227L39.1451 51.0359ZM39.3167 51.1599C39.2512 51.1153 39.1982 51.0757 39.1361 51.0292L36.7365 54.2295C36.8022 54.2787 36.9177 54.3655 37.064 54.4653L39.3167 51.1599ZM40.4376 51.8097C39.93 51.5641 39.5566 51.3282 39.3397 51.1758L37.041 54.4493C37.4234 54.7179 37.9822 55.0652 38.6954 55.4103L40.4376 51.8097ZM44.8307 52.7988C42.9396 52.7988 41.4497 52.2979 40.4355 51.8086L38.6976 55.4114C40.1323 56.1035 42.216 56.7988 44.8307 56.7988V52.7988ZM49.2239 51.8097C48.2159 52.2974 46.7228 52.7988 44.8307 52.7988V56.7988C47.4445 56.7988 49.5324 56.104 50.966 55.4103L49.2239 51.8097ZM50.3217 51.1758C50.1048 51.3282 49.7314 51.5641 49.2239 51.8097L50.966 55.4103C51.6793 55.0652 52.2381 54.7179 52.6205 54.4493L50.3217 51.1758ZM50.5231 51.0312C50.533 51.023 50.5232 51.0315 50.481 51.0624C50.443 51.0903 50.3916 51.1271 50.3258 51.173L52.6165 54.4521C52.7651 54.3483 52.9335 54.2277 53.0628 54.1214L50.5231 51.0312ZM51.8596 52.5209C50.5324 51.0247 50.5324 51.0247 50.5325 51.0246C50.5325 51.0246 50.5325 51.0246 50.5326 51.0246C50.5326 51.0245 50.5327 51.0245 50.5327 51.0244C50.5329 51.0243 50.533 51.0242 50.5331 51.0241C50.5333 51.0239 50.5335 51.0237 50.5338 51.0235C50.5342 51.0231 50.5346 51.0228 50.535 51.0224C50.5358 51.0217 50.5365 51.0211 50.5371 51.0205C50.5383 51.0195 50.5393 51.0186 50.5401 51.0179C50.5415 51.0167 50.5425 51.0158 50.5434 51.0151C50.5442 51.0144 50.546 51.0129 50.5488 51.0106C50.5514 51.0085 50.5575 51.0035 50.5667 50.9963L53.0192 54.1563C53.0684 54.1181 53.1099 54.0833 53.1341 54.0628C53.1475 54.0514 53.1589 54.0415 53.1676 54.0339C53.172 54.0301 53.1758 54.0267 53.179 54.0239C53.1806 54.0225 53.1821 54.0213 53.1833 54.0201C53.184 54.0196 53.1846 54.019 53.1852 54.0185C53.1854 54.0183 53.1857 54.018 53.186 54.0178C53.1861 54.0177 53.1862 54.0176 53.1864 54.0175C53.1864 54.0174 53.1865 54.0173 53.1865 54.0173C53.1866 54.0173 53.1866 54.0172 53.1866 54.0172C53.1867 54.0172 53.1867 54.0171 51.8596 52.5209ZM56.3162 51.3753C54.816 49.691 52.2373 49.5332 50.5427 51.0156L53.1764 54.0262C53.1977 54.0076 53.2226 53.9982 53.2549 54.0002C53.2869 54.0022 53.3102 54.0144 53.3293 54.0358L56.3162 51.3753ZM55.6458 57.4456C57.4414 56.0519 58.0003 53.3973 56.3601 51.4262L53.2854 53.9848C53.3195 54.0257 53.3274 54.0508 53.3294 54.0579C53.3318 54.0665 53.3331 54.0763 53.331 54.091C53.3269 54.1198 53.3028 54.2007 53.1932 54.2858L55.6458 57.4456ZM55.0213 57.9052C55.2951 57.7158 55.5065 57.5529 55.6395 57.4505L53.1995 54.2809C53.0736 54.3778 52.9299 54.4882 52.7449 54.6162L55.0213 57.9052ZM52.8046 59.1925C53.7502 58.7374 54.4973 58.2709 55.0276 57.9009L52.7387 54.6205C52.3588 54.8855 51.7964 55.2386 51.0699 55.5883L52.8046 59.1925ZM44.8381 61C48.206 61 50.9268 60.1025 52.8094 59.1902L51.0651 55.5906C49.6108 56.2953 47.4855 57 44.8381 57V61ZM36.8684 59.1909C38.7529 60.1021 41.4696 61 44.8381 61V57C42.1915 57 40.0694 56.2956 38.6096 55.5898L36.8684 59.1909ZM34.6487 57.9009C35.1835 58.2741 35.9284 58.7344 36.8652 59.1894L38.6128 55.5914C37.8775 55.2342 37.3128 54.8823 36.9376 54.6205L34.6487 57.9009ZM33.9869 57.4108C34.177 57.567 34.4118 57.7369 34.6549 57.9052L36.9314 54.6162C36.7158 54.467 36.5881 54.3711 36.5266 54.3205L33.9869 57.4108ZM33.765 57.2281C33.8641 57.3171 33.9721 57.4011 34.0434 57.4556L36.4701 54.2758C36.4484 54.2592 36.4332 54.2473 36.4241 54.2399C36.4198 54.2364 36.4185 54.2354 36.4199 54.2365C36.4209 54.2374 36.4274 54.2428 36.4378 54.2522L33.765 57.2281ZM33.3567 51.3786C31.8355 53.0855 32.0145 55.835 33.8536 57.3032L36.3492 54.1771C36.3519 54.1793 36.3507 54.18 36.3467 54.1721C36.3417 54.1623 36.3348 54.1429 36.3327 54.1159C36.3305 54.0887 36.3342 54.0656 36.3389 54.0508C36.3431 54.0377 36.3462 54.0362 36.3429 54.0398L33.3567 51.3786ZM55.832 42C58.8713 42 61.332 39.5393 61.332 36.5H57.332C57.332 37.3301 56.6622 38 55.832 38V42ZM50.332 36.5C50.332 39.5329 52.791 42 55.832 42V38C55.0036 38 54.332 37.3272 54.332 36.5H50.332ZM55.832 31C52.791 31 50.332 33.4671 50.332 36.5H54.332C54.332 35.6728 55.0036 35 55.832 35V31ZM61.332 36.5C61.332 33.4671 58.873 31 55.832 31V35C56.6604 35 57.332 35.6728 57.332 36.5H61.332ZM36.332 36.5C36.332 37.3301 35.6622 38 34.832 38V42C37.8713 42 40.332 39.5393 40.332 36.5H36.332ZM34.832 35C35.6604 35 36.332 35.6728 36.332 36.5H40.332C40.332 33.4671 37.873 31 34.832 31V35ZM33.332 36.5C33.332 35.6728 34.0036 35 34.832 35V31C31.791 31 29.332 33.4671 29.332 36.5H33.332ZM34.832 38C34.0036 38 33.332 37.3272 33.332 36.5H29.332C29.332 39.5329 31.791 42 34.832 42V38Z" fill="url(#paint4_linear_1384_31541)" mask="url(#path-4-inside-1_1384_31541)"/>
</g>
<defs>
<filter id="filter0_f_1384_31541" x="2.33203" y="0" width="85.332" height="88" filterUnits="userSpaceOnUse" color-interpolation-filters="sRGB">
<feFlood flood-opacity="0" result="BackgroundImageFix"/>
<feBlend mode="normal" in="SourceGraphic" in2="BackgroundImageFix" result="shape"/>
<feGaussianBlur stdDeviation="2" result="effect1_foregroundBlur_1384_31541"/>
</filter>
<filter id="filter1_f_1384_31541" x="0" y="0" width="89" height="88" filterUnits="userSpaceOnUse" color-interpolation-filters="sRGB">
<feFlood flood-opacity="0" result="BackgroundImageFix"/>
<feBlend mode="normal" in="SourceGraphic" in2="BackgroundImageFix" result="shape"/>
<feGaussianBlur stdDeviation="10" result="effect1_foregroundBlur_1384_31541"/>
</filter>
<filter id="filter2_d_1384_31541" x="8.33203" y="8" width="75" height="75" filterUnits="userSpaceOnUse" color-interpolation-filters="sRGB">
<feFlood flood-opacity="0" result="BackgroundImageFix"/>
<feColorMatrix in="SourceAlpha" type="matrix" values="0 0 0 0 0 0 0 0 0 0 0 0 0 0 0 0 0 0 127 0" result="hardAlpha"/>
<feOffset dx="1" dy="2"/>
<feGaussianBlur stdDeviation="5"/>
<feComposite in2="hardAlpha" operator="out"/>
<feColorMatrix type="matrix" values="0 0 0 0 0.380392 0 0 0 0 0.380392 0 0 0 0 0.380392 0 0 0 0.15 0"/>
<feBlend mode="normal" in2="BackgroundImageFix" result="effect1_dropShadow_1384_31541"/>
<feBlend mode="normal" in="SourceGraphic" in2="effect1_dropShadow_1384_31541" result="shape"/>
</filter>
<linearGradient id="paint0_linear_1384_31541" x1="44.9987" y1="4" x2="44.9987" y2="84" gradientUnits="userSpaceOnUse">
<stop stop-color="#FF5721"/>
<stop offset="1" stop-color="#0E26FF"/>
</linearGradient>
<linearGradient id="paint1_linear_1384_31541" x1="44.9987" y1="4" x2="44.9987" y2="84" gradientUnits="userSpaceOnUse">
<stop stop-color="#FF5721"/>
<stop offset="1" stop-color="#0E26FF"/>
</linearGradient>
<linearGradient id="paint2_linear_1384_31541" x1="44.5" y1="20" x2="44.5" y2="68" gradientUnits="userSpaceOnUse">
<stop stop-color="#FF5721"/>
<stop offset="1" stop-color="#0E26FF"/>
</linearGradient>
<linearGradient id="paint3_linear_1384_31541" x1="20.9766" y1="19.9286" x2="66.7762" y2="68.9286" gradientUnits="userSpaceOnUse">
<stop stop-color="white" stop-opacity="0.2"/>
<stop offset="1" stop-color="white" stop-opacity="0.5"/>
</linearGradient>
<linearGradient id="paint4_linear_1384_31541" x1="72.332" y1="15.9785" x2="8.68537" y2="29.1287" gradientUnits="userSpaceOnUse">
<stop stop-color="white"/>
<stop offset="1" stop-color="white" stop-opacity="0"/>
</linearGradient>
</defs>
</svg>
