<svg width="24" height="25" viewBox="0 0 24 25" fill="none" xmlns="http://www.w3.org/2000/svg">
<g id="Icon">
<path id="Vector" d="M15.9947 17.3943V11.3843C15.9947 10.8343 15.5447 10.3843 14.9947 10.3843C14.4447 10.3843 13.9947 10.8343 13.9947 11.3843V17.3943H12.2047C11.7547 17.3943 11.5347 17.9343 11.8547 18.2443L14.6447 21.0243C14.8447 21.2143 15.1547 21.2143 15.3547 21.0243L18.1447 18.2443C18.4647 17.9343 18.2347 17.3943 17.7947 17.3943H15.9947ZM8.64466 3.7343L5.85466 6.5243C5.53466 6.8343 5.75466 7.3743 6.20466 7.3743H7.99466V13.3843C7.99466 13.9343 8.44466 14.3843 8.99466 14.3843C9.54466 14.3843 9.99466 13.9343 9.99466 13.3843V7.3743H11.7847C12.2347 7.3743 12.4547 6.8343 12.1347 6.5243L9.34466 3.7343C9.15466 3.5443 8.83466 3.5443 8.64466 3.7343Z" fill="#1B1B1F"/>
</g>
</svg>
