<svg width="218" height="48" viewBox="0 0 218 48" fill="none" xmlns="http://www.w3.org/2000/svg">
<path d="M125.28 15.0026H127.384C129.436 21.7707 131.485 28.531 133.565 35.392C133.878 34.5144 134.156 33.7297 134.433 32.945C136.451 27.1965 138.472 21.448 140.47 15.6918C140.617 15.2659 140.808 15.1523 141.234 15.1626C142.375 15.1936 142.375 15.1729 142.757 16.2622C144.935 22.4728 147.114 28.6807 149.295 34.8913C149.339 35.0177 149.393 35.1417 149.483 35.3662C151.561 28.513 153.608 21.7604 155.657 15H157.761C157.381 16.2055 157.012 17.3877 156.638 18.5673C154.663 24.8011 152.684 31.0323 150.722 37.2712C150.614 37.6171 150.464 37.7255 150.115 37.7074C149.573 37.679 149.029 37.6997 148.471 37.6997C146.159 31.2078 143.856 24.7366 141.515 18.1595C141.427 18.3892 141.371 18.5235 141.322 18.6603C139.117 24.876 136.91 31.0917 134.717 37.3099C134.611 37.6094 134.482 37.7229 134.159 37.7074C133.604 37.679 133.044 37.6997 132.466 37.6997C130.07 30.1366 127.68 22.5915 125.277 15L125.28 15.0026Z" fill="#181818"/>
<path d="M82.6913 37.6766H65.9321C65.9321 37.1423 65.9114 36.6131 65.945 36.0865C65.9553 35.9265 66.0947 35.7639 66.2005 35.6219C70.671 29.5172 75.1467 23.4151 79.6197 17.3104C79.723 17.1684 79.821 17.0213 79.963 16.8174H66.4276V15.0156H82.2964C82.2964 15.5577 82.317 16.0843 82.2834 16.6109C82.2731 16.7709 82.126 16.9284 82.0202 17.0729C77.5574 23.1673 73.0895 29.2565 68.6242 35.3509C68.5184 35.4954 68.4151 35.64 68.2551 35.862H82.6887V37.6766H82.6913Z" fill="#181818"/>
<path d="M169.119 28.8707C169.558 25.9332 167.836 23.8424 164.829 23.6229C162.816 23.4758 160.883 23.8191 159.011 24.5522C158.882 24.6038 158.753 24.6554 158.544 24.738C158.544 24.1521 158.537 23.6049 158.555 23.0576C158.555 22.9983 158.678 22.9157 158.761 22.8873C161.164 22.069 163.611 21.5837 166.159 22.0277C169.065 22.5336 170.926 24.6864 170.983 27.6446C171.024 29.8361 170.998 32.0275 171.006 34.2216C171.006 34.472 171.014 34.725 171.05 34.9728C171.166 35.822 171.6 36.2066 172.456 36.1886C172.828 36.1808 173.197 36.1008 173.639 36.044C173.639 36.4699 173.644 36.9087 173.631 37.345C173.631 37.4043 173.541 37.4921 173.476 37.5127C172.423 37.8406 171.372 37.9748 170.363 37.3708C169.749 37.0017 169.449 36.4157 169.284 35.742C169.269 35.6775 169.235 35.6207 169.197 35.5226C168.44 36.2841 167.596 36.8778 166.621 37.2495C164.512 38.0522 162.362 38.282 160.207 37.4534C158.537 36.8106 157.556 35.5794 157.427 33.7699C157.29 31.852 158 30.3291 159.706 29.3534C160.986 28.6203 162.398 28.3751 163.848 28.3286C165.487 28.277 167.108 28.4628 168.711 28.8035C168.846 28.8319 168.98 28.85 169.116 28.8732L169.119 28.8707ZM169.16 32.1205C169.16 31.6455 169.15 31.1706 169.166 30.6982C169.173 30.4555 169.086 30.3652 168.848 30.311C167.036 29.9032 165.201 29.7793 163.358 29.9445C162.607 30.0116 161.843 30.2207 161.146 30.5098C159.843 31.0492 159.197 32.1566 159.288 33.4447C159.383 34.7714 160.126 35.742 161.518 36.0982C164.153 36.7693 166.504 36.1499 168.559 34.3662C168.998 33.9867 169.261 33.5634 169.166 32.9568C169.124 32.6832 169.158 32.3992 169.158 32.1205H169.16Z" fill="#181818"/>
<path d="M99.1717 30.7406H86.0854C86.1783 31.897 86.5191 32.9218 87.1953 33.8201C88.2433 35.2114 89.7145 35.8618 91.3819 36.0993C93.6739 36.4271 95.8885 36.1561 97.9767 35.0926C98.0128 35.0746 98.0541 35.0694 98.1547 35.0384C98.1547 35.5805 98.1677 36.1019 98.1418 36.6233C98.1367 36.7188 97.9947 36.8479 97.8889 36.8943C95.9505 37.7642 93.9165 38.0714 91.8052 37.8985C90.4243 37.7849 89.1157 37.4261 87.9129 36.724C86.1448 35.6941 85.0091 34.1789 84.529 32.1939C83.9896 29.9559 84.1444 27.7644 85.2956 25.7433C86.8056 23.0871 89.2009 21.8894 92.2027 21.8636C94.1256 21.8481 95.8705 22.3928 97.2694 23.7841C98.449 24.9586 99.0349 26.4195 99.1614 28.0535C99.2285 28.9234 99.1743 29.8036 99.1743 30.7354L99.1717 30.7406ZM86.0674 29.0989H97.4398C97.574 27.3824 97.1249 25.9136 95.8163 24.7959C94.1076 23.3375 91.2554 23.1233 89.1621 24.2719C87.2728 25.307 86.3565 26.9745 86.0674 29.1015V29.0989Z" fill="#181818"/>
<path d="M190.619 30.7456C190.748 32.9165 191.948 34.775 194 35.57C196.773 36.6413 199.524 36.4115 202.219 35.2319C202.345 35.1777 202.466 35.1106 202.665 35.0125C202.665 35.5933 202.676 36.125 202.655 36.6594C202.652 36.742 202.513 36.8503 202.412 36.8968C200.489 37.7667 198.466 38.0713 196.37 37.9113C194.976 37.8054 193.652 37.444 192.436 36.7368C190.653 35.7017 189.512 34.1736 189.037 32.1705C188.508 29.9455 188.665 27.7669 189.803 25.7586C191.321 23.0844 193.727 21.8841 196.747 21.8712C198.67 21.8609 200.412 22.4159 201.803 23.8124C202.944 24.9584 203.53 26.3781 203.664 27.9656C203.742 28.8716 203.669 29.7906 203.664 30.7482H190.619V30.7456ZM201.953 29.1091C202.09 27.3745 201.643 25.8877 200.306 24.7752C197.632 22.5475 193.156 23.4045 191.432 26.4452C190.968 27.2661 190.679 28.1386 190.601 29.1091H201.953Z" fill="#181818"/>
<path d="M113.007 22.1161H119.186V23.7785H112.942V37.6683H111.12V23.7965H108.074V22.1161H111.148C111.148 21.1972 111.102 20.317 111.159 19.4445C111.285 17.5163 112.041 15.9624 113.931 15.1725C114.904 14.7647 115.939 14.6382 116.971 14.7672C117.921 14.886 118.853 15.1389 119.793 15.3351C120.092 15.3971 120.231 15.5519 120.203 15.8875C120.169 16.2876 120.195 16.6903 120.195 17.0697C119.413 16.8865 118.665 16.6309 117.901 16.5561C117.077 16.476 116.223 16.4812 115.402 16.5999C114.019 16.7987 113.167 17.7047 113.025 19.1348C112.929 20.1001 113.007 21.081 113.007 22.1187V22.1161Z" fill="#181818"/>
<path d="M217.194 35.5853C217.194 36.0783 217.204 36.5507 217.186 37.0231C217.183 37.1186 217.09 37.2657 217.008 37.2915C215.152 37.9007 213.268 38.2595 211.345 37.6323C209.585 37.0566 208.501 35.544 208.457 33.5383C208.408 31.3184 208.433 29.0986 208.426 26.8787C208.426 26.0139 208.426 25.1466 208.426 24.2819V23.8018H205.504V22.1214H208.449V17.8391C209.035 17.71 209.59 17.5887 210.191 17.457V22.093H216.724V23.7786H210.232C210.225 23.9567 210.212 24.1012 210.212 24.2483C210.212 27.0542 210.209 29.8626 210.212 32.6684C210.212 33.0014 210.22 33.3422 210.274 33.67C210.532 35.2497 211.433 36.0577 213.036 36.1971C214.308 36.3081 215.539 36.1429 216.737 35.6963C216.84 35.6576 216.949 35.624 217.054 35.5905C217.08 35.5827 217.109 35.5905 217.196 35.5905L217.194 35.5853Z" fill="#181818"/>
<path d="M103.227 15H104.989V37.6661H103.227V15Z" fill="#181818"/>
<path d="M178.246 37.687H176.48V15.0156H178.246V37.687Z" fill="#181818"/>
<path d="M184.778 37.687H183.008V15.0156H184.778V37.687Z" fill="#181818"/>
<path d="M23.7637 0C26.4391 3.67031 29.8743 7.85437 34.2053 12.1784H14.7617C18.9688 7.67446 21.8481 3.35245 23.7677 0H23.7657H23.7637Z" fill="#181818"/>
<path d="M0 24.0583C3.42322 22.3791 7.9202 19.7443 12.4332 15.7141C12.8311 15.3583 13.221 14.9985 13.5949 14.6406H30.983C30.983 14.6406 18.3898 32.6303 11.4994 32.6843C5.81468 32.7303 3.43322 26.1993 0 24.0563L0 24.0583Z" fill="#181818"/>
<path d="M24.8725 47.9992C22.775 45.1205 20.0736 41.834 16.6523 38.4336H32.6407C29.2535 41.884 26.7241 45.2145 24.8745 47.9992H24.8725Z" fill="#181818"/>
<path d="M35.1748 35.4629C34.9868 35.6309 34.8028 35.8008 34.6209 35.9687H15.9531C15.9531 35.9687 28.7542 17.7451 35.7366 17.7071C41.5633 17.6771 43.9768 24.3641 47.484 26.553C43.9168 28.5781 39.5738 31.4588 35.1728 35.4629H35.1748Z" fill="#181818"/>
</svg>
