<svg width="213" height="55" viewBox="0 0 213 55" fill="none" xmlns="http://www.w3.org/2000/svg">
<path d="M164.104 40.4971H159.334V49.5738C159.334 50.4043 159.524 50.962 159.904 51.2467C160.307 51.5315 160.841 51.6739 161.505 51.6739C161.98 51.6739 162.478 51.6264 163 51.5315C163.546 51.4128 164.021 51.2823 164.424 51.1399L164.994 53.8451C164.519 54.035 163.902 54.213 163.143 54.3791C162.407 54.5214 161.624 54.5926 160.794 54.5926C158.99 54.5926 157.685 54.2248 156.878 53.4892C156.095 52.7298 155.703 51.6145 155.703 50.1433V40.4971H153.141V37.7919H155.703V32.4883H159.334V37.7919H164.104V40.4971Z" fill="#010333"/>
<path d="M151.297 46.8336H139.515V46.976C139.515 48.6846 140.014 49.9778 141.01 50.8558C142.007 51.7339 143.324 52.1729 144.961 52.1729C145.863 52.1729 146.67 52.1017 147.382 51.9593C148.117 51.7932 148.853 51.544 149.589 51.2118L150.3 53.8814C149.612 54.1899 148.794 54.4391 147.844 54.6289C146.895 54.8425 145.851 54.9493 144.712 54.9493C143.502 54.9493 142.351 54.7831 141.259 54.4509C140.168 54.1187 139.207 53.5966 138.376 52.8848C137.569 52.1729 136.929 51.2711 136.454 50.1795C135.979 49.088 135.742 47.7828 135.742 46.2641C135.742 44.959 135.932 43.7725 136.312 42.7046C136.715 41.6131 137.273 40.6876 137.985 39.9283C138.72 39.1452 139.598 38.5519 140.619 38.1485C141.663 37.7214 142.814 37.5078 144.071 37.5078C145.163 37.5078 146.148 37.6858 147.026 38.0417C147.927 38.3977 148.687 38.9079 149.304 39.5723C149.945 40.213 150.431 41.008 150.763 41.9572C151.119 42.8826 151.297 43.9149 151.297 45.0539V46.8336ZM147.524 44.2708C147.524 43.7013 147.453 43.1674 147.31 42.6691C147.168 42.1707 146.955 41.7436 146.67 41.3876C146.385 41.008 146.005 40.7113 145.531 40.4978C145.08 40.2605 144.534 40.1418 143.893 40.1418C142.707 40.1418 141.734 40.5215 140.975 41.2809C140.239 42.0402 139.788 43.0606 139.622 44.342L147.524 44.2708Z" fill="#010333"/>
<path d="M128.332 54.593V29.2852H131.927V54.593H128.332Z" fill="#010333"/>
<path d="M119.781 54.593V29.2852H123.376V54.593H119.781Z" fill="#010333"/>
<path d="M101.88 39.2876C102.971 38.6943 104.015 38.2553 105.012 37.9705C106.032 37.6621 107.159 37.5078 108.393 37.5078C109.343 37.5078 110.209 37.6146 110.992 37.8282C111.799 38.0417 112.487 38.3858 113.056 38.8604C113.626 39.335 114.065 39.9757 114.373 40.7825C114.705 41.5656 114.872 42.5267 114.872 43.6657V54.5933H111.917L111.526 52.778H111.419C110.754 53.5373 109.983 54.095 109.105 54.4509C108.227 54.7831 107.254 54.9493 106.186 54.9493C104.502 54.9493 103.137 54.4984 102.093 53.5966C101.073 52.6949 100.562 51.4966 100.562 50.0016C100.562 49.0761 100.752 48.2812 101.132 47.6167C101.512 46.9286 102.046 46.359 102.734 45.9082C103.422 45.4573 104.241 45.1251 105.19 44.9115C106.139 44.6742 107.183 44.5556 108.322 44.5556H111.17V43.2742C111.17 42.2063 110.885 41.4707 110.315 41.0673C109.746 40.6402 108.963 40.4266 107.966 40.4266C107.349 40.4266 106.649 40.5334 105.866 40.7469C105.107 40.9368 104.229 41.3046 103.232 41.8504L101.88 39.2876ZM111.205 46.976L108.963 47.0116C107.278 47.0591 106.092 47.3557 105.403 47.9015C104.715 48.4473 104.371 49.088 104.371 49.8236C104.371 50.2982 104.442 50.6897 104.585 50.9982C104.751 51.3067 104.964 51.5559 105.225 51.7457C105.486 51.9356 105.783 52.0779 106.115 52.1729C106.471 52.244 106.827 52.2796 107.183 52.2796C107.919 52.2796 108.643 52.1017 109.354 51.7457C110.09 51.366 110.707 50.8321 111.205 50.144V46.976Z" fill="#010333"/>
<path d="M73.3798 32.168L76.7613 44.4838C76.8325 44.7922 76.9274 45.1957 77.0461 45.694C77.1647 46.1686 77.2715 46.6788 77.3665 47.2246C77.4851 47.7466 77.5919 48.2805 77.6868 48.8263C77.7817 49.3484 77.8648 49.823 77.936 50.2501H78.0072C78.0783 49.823 78.1614 49.3484 78.2563 48.8263C78.3512 48.2805 78.458 47.7466 78.5767 47.2246C78.6953 46.6788 78.814 46.1686 78.9326 45.694C79.0513 45.2194 79.158 44.816 79.253 44.4838L82.7769 32.168H86.4075L89.967 44.4126C90.0619 44.6973 90.1687 45.0889 90.2874 45.5872C90.406 46.0855 90.5246 46.6076 90.6433 47.1534C90.7619 47.6992 90.8687 48.2568 90.9636 48.8263C91.0823 49.3721 91.1772 49.8467 91.2484 50.2501H91.3196C91.3908 49.823 91.4738 49.3484 91.5688 48.8263C91.6874 48.3043 91.7942 47.7822 91.8891 47.2602C92.0078 46.7144 92.1264 46.1923 92.2451 45.694C92.3637 45.1957 92.4705 44.7685 92.5654 44.4126L95.7689 32.168H99.6132L93.3129 54.5927H89.3263L86.016 42.5972C85.7549 41.6006 85.5058 40.6514 85.2685 39.7497C85.0549 38.8479 84.8176 37.8631 84.5566 36.7953H84.4854C84.2244 37.8631 83.9871 38.8361 83.7735 39.7141C83.5599 40.5921 83.3226 41.5294 83.0616 42.526L79.8581 54.5927H75.9427L69.5 32.168H73.3798Z" fill="#010333"/>
<path d="M208.661 23.1582C209.42 23.1582 210.085 23.0752 210.654 22.909C211.247 22.7192 211.781 22.5056 212.256 22.2683L213.003 24.9024C212.434 25.2108 211.746 25.46 210.939 25.6498C210.132 25.8397 209.242 25.9346 208.269 25.9346C207.035 25.9346 205.873 25.7566 204.781 25.4007C203.713 25.021 202.776 24.4752 201.969 23.7633C201.186 23.0277 200.557 22.1141 200.083 21.0225C199.632 19.931 199.406 18.6614 199.406 17.2139C199.406 15.885 199.62 14.6867 200.047 13.6188C200.474 12.5272 201.079 11.6018 201.862 10.8424C202.645 10.0831 203.583 9.50168 204.674 9.09827C205.766 8.69487 206.964 8.49316 208.269 8.49316C209.005 8.49316 209.741 8.55249 210.476 8.67114C211.236 8.78979 212.066 9.06268 212.968 9.48982L212.149 12.1594C211.034 11.5424 209.871 11.234 208.661 11.234C207.024 11.234 205.695 11.7442 204.674 12.7645C203.654 13.7849 203.144 15.2324 203.144 17.1071C203.144 18.2461 203.298 19.2072 203.606 19.9903C203.939 20.7496 204.366 21.3666 204.888 21.8412C205.41 22.3158 205.991 22.6599 206.632 22.8735C207.296 23.0633 207.973 23.1582 208.661 23.1582Z" fill="#010333"/>
<path d="M191.687 25.5787V8.77796H195.353V25.5787H191.687ZM193.538 4.61337C192.897 4.61337 192.387 4.42353 192.007 4.04385C191.627 3.64045 191.438 3.14212 191.438 2.54887C191.438 1.95562 191.627 1.46916 192.007 1.08949C192.387 0.686078 192.897 0.484375 193.538 0.484375C194.155 0.484375 194.653 0.686078 195.033 1.08949C195.436 1.46916 195.638 1.95562 195.638 2.54887C195.638 3.16585 195.436 3.66417 195.033 4.04385C194.653 4.42353 194.155 4.61337 193.538 4.61337Z" fill="#010333"/>
<path d="M177.98 25.5787V8.77792H180.757L181.291 12.017C181.694 11.0204 182.347 10.1898 183.248 9.52541C184.15 8.83725 185.242 8.49316 186.523 8.49316C187.093 8.49316 187.579 8.54062 187.983 8.63554C188.41 8.73046 188.789 8.86098 189.122 9.02708L188.445 12.0882C188.161 11.9459 187.828 11.8272 187.449 11.7323C187.093 11.6374 186.677 11.5899 186.203 11.5899C184.898 11.5899 183.806 12.0408 182.928 12.9425C182.05 13.8205 181.611 15.1613 181.611 16.9647V25.5787H177.98Z" fill="#010333"/>
<path d="M174.096 11.4834H169.326V20.5601C169.326 21.3906 169.516 21.9483 169.896 22.2331C170.299 22.5178 170.833 22.6602 171.498 22.6602C171.972 22.6602 172.471 22.6127 172.993 22.5178C173.538 22.3992 174.013 22.2686 174.416 22.1263L174.986 24.8315C174.511 25.0213 173.894 25.1993 173.135 25.3654C172.399 25.5078 171.616 25.579 170.786 25.579C168.982 25.579 167.677 25.2112 166.87 24.4755C166.087 23.7162 165.696 22.6009 165.696 21.1296V11.4834H163.133V8.77823H165.696V3.47461H169.326V8.77823H174.096V11.4834Z" fill="#010333"/>
<path d="M161.289 17.819H149.507V17.9614C149.507 19.6699 150.006 20.9632 151.002 21.8412C151.999 22.7192 153.316 23.1582 154.953 23.1582C155.855 23.1582 156.662 23.087 157.374 22.9446C158.109 22.7785 158.845 22.5294 159.581 22.1972L160.293 24.8668C159.604 25.1752 158.786 25.4244 157.837 25.6142C156.887 25.8278 155.843 25.9346 154.704 25.9346C153.494 25.9346 152.343 25.7685 151.252 25.4363C150.16 25.1041 149.199 24.582 148.368 23.8701C147.562 23.1582 146.921 22.2565 146.446 21.1649C145.972 20.0733 145.734 18.7682 145.734 17.2495C145.734 15.9443 145.924 14.7578 146.304 13.69C146.707 12.5984 147.265 11.673 147.977 10.9136C148.712 10.1305 149.59 9.53728 150.611 9.13387C151.655 8.70673 152.806 8.49316 154.064 8.49316C155.155 8.49316 156.14 8.67114 157.018 9.02708C157.92 9.38303 158.679 9.89322 159.296 10.5577C159.937 11.1984 160.423 11.9933 160.755 12.9425C161.111 13.868 161.289 14.9002 161.289 16.0393V17.819ZM157.516 15.2562C157.516 14.6867 157.445 14.1527 157.303 13.6544C157.16 13.1561 156.947 12.7289 156.662 12.373C156.377 11.9933 155.998 11.6967 155.523 11.4831C155.072 11.2458 154.526 11.1272 153.886 11.1272C152.699 11.1272 151.726 11.5069 150.967 12.2662C150.231 13.0256 149.78 14.0459 149.614 15.3274L157.516 15.2562Z" fill="#010333"/>
<path d="M120.713 25.5787H117.047V8.77792H119.894L120.393 11.0204C121.176 10.2373 122.018 9.62033 122.92 9.16946C123.822 8.7186 124.878 8.49316 126.088 8.49316C127.298 8.49316 128.283 8.73046 129.042 9.20506C129.825 9.67966 130.419 10.3441 130.822 11.1984C131.629 10.3441 132.519 9.67966 133.492 9.20506C134.488 8.73046 135.58 8.49316 136.766 8.49316C138.522 8.49316 139.839 8.97963 140.717 9.95255C141.619 10.9017 142.07 12.2543 142.07 14.0104V25.5787H138.404V14.5799C138.404 13.5595 138.178 12.7764 137.727 12.2306C137.3 11.6848 136.588 11.4119 135.592 11.4119C134.073 11.4119 132.673 12.0882 131.392 13.4408V25.5787H127.725V14.5799C127.725 13.5595 127.5 12.7764 127.049 12.2306C126.622 11.6848 125.91 11.4119 124.913 11.4119C123.395 11.4119 121.995 12.1238 120.713 13.5476V25.5787Z" fill="#010333"/>
<path d="M113.382 17.0003C113.382 18.4004 113.156 19.6581 112.706 20.7734C112.278 21.8887 111.685 22.826 110.926 23.5853C110.166 24.3447 109.277 24.9261 108.256 25.3295C107.236 25.7329 106.132 25.9346 104.946 25.9346C103.759 25.9346 102.656 25.7448 101.636 25.3651C100.639 24.9854 99.761 24.4396 99.0016 23.7277C98.266 22.9921 97.6846 22.0904 97.2575 21.0225C96.854 19.9547 96.6523 18.7326 96.6523 17.3563C96.6523 15.9325 96.8659 14.6748 97.293 13.5832C97.7439 12.4916 98.349 11.5662 99.1084 10.8068C99.8677 10.0475 100.758 9.47795 101.778 9.09827C102.798 8.69487 103.902 8.49316 105.088 8.49316C106.275 8.49316 107.366 8.683 108.363 9.06268C109.383 9.41863 110.261 9.95255 110.997 10.6644C111.756 11.3763 112.338 12.2662 112.741 13.3341C113.168 14.4019 113.382 15.624 113.382 17.0003ZM109.573 17.1783C109.573 16.1104 109.443 15.2087 109.182 14.4731C108.921 13.7137 108.577 13.0968 108.149 12.6222C107.722 12.1476 107.236 11.8035 106.69 11.5899C106.144 11.3763 105.575 11.2696 104.982 11.2696C104.412 11.2696 103.854 11.3645 103.309 11.5543C102.763 11.7442 102.276 12.0645 101.849 12.5154C101.422 12.9662 101.078 13.5714 100.817 14.3307C100.58 15.0901 100.461 16.0393 100.461 17.1783C100.461 18.2224 100.591 19.1241 100.853 19.8835C101.114 20.6428 101.458 21.2717 101.885 21.77C102.312 22.2446 102.798 22.6006 103.344 22.8379C103.914 23.0514 104.483 23.1582 105.053 23.1582C105.622 23.1582 106.18 23.0633 106.726 22.8735C107.271 22.6836 107.758 22.3633 108.185 21.9124C108.612 21.4378 108.944 20.8208 109.182 20.0615C109.443 19.2784 109.573 18.3173 109.573 17.1783Z" fill="#010333"/>
<path d="M88.9328 25.5787V8.77796H92.599V25.5787H88.9328ZM90.7837 4.61337C90.143 4.61337 89.6328 4.42353 89.2531 4.04385C88.8734 3.64045 88.6836 3.14212 88.6836 2.54887C88.6836 1.95562 88.8734 1.46916 89.2531 1.08949C89.6328 0.686078 90.143 0.484375 90.7837 0.484375C91.4007 0.484375 91.899 0.686078 92.2787 1.08949C92.6821 1.46916 92.8838 1.95562 92.8838 2.54887C92.8838 3.16585 92.6821 3.66417 92.2787 4.04385C91.899 4.42353 91.4007 4.61337 90.7837 4.61337Z" fill="#010333"/>
<path d="M76.5881 3.1543C78.8899 3.1543 80.6815 3.65262 81.963 4.64928C83.2444 5.6222 83.8851 7.03413 83.8851 8.88506C83.8851 9.57322 83.7664 10.1902 83.5291 10.736C83.3156 11.258 83.0189 11.7208 82.6393 12.1242C82.2833 12.5039 81.8562 12.8242 81.3578 13.0852C80.8595 13.3463 80.3375 13.548 79.7917 13.6903C80.4561 13.809 81.0731 14.0226 81.6426 14.3311C82.2358 14.6158 82.746 14.9955 83.1732 15.4701C83.6003 15.921 83.9325 16.4667 84.1698 17.1074C84.4309 17.7482 84.5614 18.4719 84.5614 19.2787C84.5614 20.2042 84.3597 21.0585 83.9563 21.8416C83.5529 22.6009 82.9833 23.2653 82.2477 23.8349C81.5358 24.3806 80.6815 24.8078 79.6849 25.1163C78.6882 25.4248 77.5848 25.579 76.3746 25.579H69.4336V3.1543H76.5881ZM73.2422 12.3733H75.8051C76.3746 12.3733 76.9085 12.3259 77.4068 12.231C77.9289 12.136 78.3679 11.9699 78.7238 11.7326C79.1035 11.4716 79.4001 11.1394 79.6137 10.736C79.851 10.3088 79.9696 9.78679 79.9696 9.16981C79.9696 8.1257 79.6137 7.36635 78.9018 6.89175C78.1899 6.39342 77.2288 6.14426 76.0186 6.14426H73.2422V12.3733ZM73.2422 22.589H75.9118C76.5525 22.589 77.1577 22.5297 77.7272 22.4111C78.2967 22.2687 78.795 22.0551 79.2222 21.7704C79.6493 21.4856 79.9815 21.1178 80.2188 20.6669C80.4798 20.1923 80.6104 19.6109 80.6104 18.9228C80.6104 18.2583 80.468 17.7007 80.1832 17.2498C79.8985 16.7752 79.5188 16.3956 79.0442 16.1108C78.5696 15.826 78.0238 15.6243 77.4068 15.5057C76.7898 15.387 76.1491 15.3277 75.4847 15.3277H73.2422V22.589Z" fill="#010333"/>
<path d="M60.9976 2.26294C60.9976 2.26294 53.5021 -0.659049 47.293 6.03492C42.3555 2.25309 36.1073 0 29.4279 0C22.8719 0 16.4148 2.29497 11.2586 6.38107C6.18432 10.4044 2.5148 16.1547 0.92679 22.468C-1.38071 31.6344 0.500469 42.9638 7.92625 49.2883C15.2775 55.5498 25.0951 56.7115 33.1316 52.5342C38.1498 49.9264 41.4931 45.8834 43.786 40.7157C46.7971 33.9293 50.16 26.1107 53.1699 19.3243C55.6435 24.5782 55.729 30.5614 54.6541 35.6921C53.5803 40.8216 50.7818 45.568 46.8264 48.9704C46.2376 49.4767 45.6097 49.9707 45.2274 50.6482C44.2709 52.3384 46.1167 54.334 47.7462 53.0491C48.4779 52.4726 49.2255 51.816 49.923 51.088C55.4371 45.6961 58.9759 38.13 58.9759 29.7718C58.9759 24.5092 57.576 19.3871 55.194 15.1015C58.4543 7.86178 61 2.26171 61 2.26171M17.2906 40.7797C12.4081 41.0705 7.58422 38.353 5.30725 33.9897C4.27749 32.0175 3.75711 29.773 3.8585 27.5433C4.09548 22.3325 6.14646 17.288 9.40921 13.2623C12.5803 9.34987 16.8912 6.41433 21.6686 4.89421C22.6227 4.59117 23.595 4.34233 24.5784 4.15386C26.181 3.84589 27.8118 3.69314 29.4438 3.69314C35.6822 3.69314 41.305 5.86492 45.2127 9.05053C44.4749 10.1469 43.7347 11.242 42.9932 12.3372C41.2451 14.9191 39.491 17.4974 37.7295 20.0696C35.6676 23.079 33.597 26.0823 31.5021 29.0684C28.6278 33.1631 26.1542 37.9501 21.301 39.9236C20.044 40.4348 18.6417 40.6997 17.2918 40.7797H17.2906Z" fill="#1C44F9"/>
</svg>
