<svg width="32" height="33" viewBox="0 0 32 33" fill="none" xmlns="http://www.w3.org/2000/svg">
<rect x="1" y="1.62109" width="30" height="30" rx="15" stroke="#1C44F9" stroke-width="2"/>
<path d="M15.3367 12.0934V19.5401L12.0833 16.2868C11.8233 16.0268 11.3967 16.0268 11.1367 16.2868C10.8767 16.5468 10.8767 16.9668 11.1367 17.2268L15.53 21.6201C15.79 21.8801 16.21 21.8801 16.47 21.6201L20.8633 17.2268C21.1233 16.9668 21.1233 16.5468 20.8633 16.2868C20.6033 16.0268 20.1833 16.0268 19.9233 16.2868L16.67 19.5401V12.0934C16.67 11.7268 16.37 11.4268 16.0033 11.4268C15.6367 11.4268 15.3367 11.7268 15.3367 12.0934Z" fill="#1C44F9"/>
</svg>
