<svg width="36" height="37" viewBox="0 0 36 37" fill="none" xmlns="http://www.w3.org/2000/svg">
<rect x="0.5" y="0.878906" width="35" height="35" rx="17.5" stroke="#CAC4D0"/>
<path d="M8.94466 19.712H23.838L17.3313 26.2187C16.8113 26.7387 16.8113 27.592 17.3313 28.112C17.8513 28.632 18.6913 28.632 19.2113 28.112L27.998 19.3254C28.518 18.8054 28.518 17.9654 27.998 17.4454L19.2247 8.64537C18.7047 8.12537 17.8647 8.12537 17.3447 8.64537C16.8247 9.16537 16.8247 10.0054 17.3447 10.5254L23.838 17.0454H8.94466C8.21133 17.0454 7.61133 17.6454 7.61133 18.3787C7.61133 19.112 8.21133 19.712 8.94466 19.712Z" fill="#CAC4D0"/>
</svg>
