<svg width="20" height="20" viewBox="0 0 20 20" fill="none" xmlns="http://www.w3.org/2000/svg">
<g clip-path="url(#clip0_24091_13087)">
<path d="M6.24856 20C4.7394 19.999 3.28152 19.4525 2.14393 18.4612C1.00634 17.4699 0.265815 16.1008 0.0590031 14.6065C-0.147809 13.1122 0.193048 11.5935 1.01868 10.3308C1.84431 9.06799 3.09899 8.14633 4.5512 7.73584C5.60673 7.4337 6.72399 7.41989 7.78668 7.69584L14.3794 1.10751C14.7293 0.755251 15.1458 0.475961 15.6046 0.285846C16.0634 0.0957305 16.5555 -0.00142483 17.0521 1.57893e-05C17.8337 0.000677816 18.5832 0.311342 19.1358 0.863805C19.6885 1.41627 19.9993 2.16538 20 2.94668C20.0013 3.44317 19.9041 3.93499 19.7141 4.39371C19.524 4.85243 19.2449 5.26895 18.8929 5.61918L18.3326 6.17918C18.0192 6.49038 17.5956 6.66553 17.1538 6.66668H15.8316V7.50001C15.8316 7.94204 15.656 8.36596 15.3433 8.67852C15.0306 8.99108 14.6065 9.16668 14.1643 9.16668H13.3306V10.4883C13.3312 10.7073 13.2883 10.9242 13.2045 11.1264C13.1206 11.3287 12.9974 11.5123 12.8421 11.6667L12.3002 12.2083C12.5778 13.2701 12.5642 14.387 12.261 15.4417C11.9198 16.6433 11.2275 17.7158 10.2728 18.5218C9.31811 19.3278 8.14446 19.8306 6.90215 19.9658C6.68502 19.9884 6.46686 19.9998 6.24856 20ZM6.24856 9.16668C5.395 9.16585 4.55816 9.4032 3.83223 9.852C3.1063 10.3008 2.5201 10.9432 2.13963 11.707C1.75916 12.4707 1.59952 13.3255 1.67867 14.175C1.75783 15.0246 2.07263 15.8351 2.58766 16.5155C3.10269 17.1959 3.79749 17.7191 4.59384 18.0262C5.3902 18.3333 6.2565 18.4121 7.09522 18.2537C7.93395 18.0953 8.71179 17.7061 9.34121 17.1298C9.97062 16.5535 10.4266 15.813 10.6579 14.9917C10.918 14.0888 10.8888 13.1272 10.5745 12.2417C10.5232 12.0938 10.5146 11.9345 10.5497 11.7819C10.5848 11.6294 10.6621 11.4898 10.7729 11.3792L11.6633 10.4883V9.16668C11.6633 8.72465 11.8389 8.30073 12.1516 7.98816C12.4643 7.6756 12.8884 7.50001 13.3306 7.50001H14.1643V6.66668C14.1643 6.22465 14.3399 5.80073 14.6526 5.48817C14.9653 5.17561 15.3894 5.00001 15.8316 5.00001H17.1538L17.7141 4.44001C17.9108 4.24431 18.0667 4.01157 18.1729 3.75524C18.2791 3.49892 18.3334 3.2241 18.3326 2.94668C18.3324 2.60742 18.1976 2.2821 17.9576 2.04212C17.7177 1.80215 17.3924 1.66712 17.053 1.66668C16.7752 1.666 16.5001 1.72037 16.2435 1.82665C15.987 1.93293 15.754 2.089 15.5582 2.28585L8.61285 9.22751C8.50201 9.33824 8.36219 9.41551 8.20943 9.45044C8.05667 9.48537 7.89715 9.47656 7.74917 9.42501C7.26569 9.25485 6.75695 9.16751 6.24439 9.16668H6.24856ZM4.1602 15C4.1602 15.1648 4.2091 15.3259 4.3007 15.463C4.39231 15.6 4.52251 15.7068 4.67484 15.7699C4.82718 15.833 4.9948 15.8495 5.15652 15.8173C5.31823 15.7852 5.46678 15.7058 5.58337 15.5893C5.69996 15.4727 5.77936 15.3242 5.81153 15.1626C5.8437 15.0009 5.82719 14.8334 5.76409 14.6811C5.70099 14.5288 5.59414 14.3987 5.45704 14.3071C5.31994 14.2155 5.15876 14.1667 4.99388 14.1667C4.77277 14.1667 4.56073 14.2545 4.40438 14.4107C4.24804 14.567 4.1602 14.779 4.1602 15Z" fill="#FD6337"/>
</g>
<defs>
<clipPath id="clip0_24091_13087">
<rect width="20" height="20" fill="white"/>
</clipPath>
</defs>
</svg>
